<svg width="62" height="62" viewBox="0 0 62 62" fill="none" xmlns="http://www.w3.org/2000/svg">
<path d="M56.9896 51.5104L46.0544 40.5751C48.763 36.7738 50.375 32.1392 50.375 27.125C50.375 14.3046 39.9454 3.875 27.125 3.875C14.3046 3.875 3.875 14.3046 3.875 27.125C3.875 39.9454 14.3046 50.375 27.125 50.375C32.1392 50.375 36.7738 48.7649 40.5751 46.0544L51.5104 56.9896C53.0216 58.5028 55.4784 58.5028 56.9896 56.9896C58.5028 55.4764 58.5028 53.0236 56.9896 51.5104ZM27.125 46.5C16.4416 46.5 7.75 37.8084 7.75 27.125C7.75 16.4416 16.4416 7.75 27.125 7.75C37.8084 7.75 46.5 16.4416 46.5 27.125C46.5 37.8084 37.8084 46.5 27.125 46.5Z" fill="#6A0DAD"/>
<path d="M32.6507 22.248C33.4354 23.3544 33.9062 24.697 33.9062 26.156C33.9062 29.9012 30.8702 32.9372 27.125 32.9372C23.3798 32.9372 20.3438 29.9012 20.3438 26.156C20.3438 24.697 20.8146 23.3544 21.5992 22.248L27.125 24.4704L32.6507 22.248Z" fill="#6A0DAD"/>
<path d="M38.75 16.4742V23.2496H36.8125V17.4429L27.311 21.2618C27.1909 21.3102 27.0572 21.3102 26.9371 21.2618L15.688 16.7396C15.4439 16.6408 15.4439 16.2959 15.688 16.1971L26.939 11.675C27.0592 11.6266 27.1929 11.6266 27.313 11.675L38.5737 16.201C38.6958 16.2514 38.752 16.3638 38.75 16.4742Z" fill="#6A0DAD"/>
<path d="M38.6685 38.8624C35.6964 41.7861 31.6238 43.5938 27.1249 43.5938C22.626 43.5938 18.5534 41.7861 15.5813 38.8624C15.9572 36.2216 17.6699 34.0206 20.0104 32.9375L27.1249 36.8125L34.2394 32.9375C36.5799 34.0206 38.2927 36.2216 38.6685 38.8624Z" fill="#6A0DAD"/>
</svg>
