<svg width="71" height="70" viewBox="0 0 71 70" fill="none" xmlns="http://www.w3.org/2000/svg">
<path d="M51.416 15.3501V9.48269C51.4823 9.54113 51.5581 9.58648 51.6212 9.64882L58.3852 16.3282C58.4483 16.3906 58.4942 16.4654 58.5534 16.5309H52.6117C52.2947 16.5304 51.9908 16.4059 51.7667 16.1846C51.5425 15.9632 51.4164 15.6631 51.416 15.3501ZM57.2511 64.6002L59.4273 66.7374C59.0676 67.6041 58.4547 68.3454 57.6668 68.8669C56.8789 69.3884 55.9517 69.6665 55.0032 69.6657H19.1315C18.5034 69.6659 17.8814 69.5438 17.301 69.3065C16.7206 69.0693 16.1933 68.7214 15.7491 68.2827C15.305 67.8441 14.9527 67.3234 14.7124 66.7503C14.4721 66.1772 14.3485 65.5629 14.3487 64.9426V37.9147C14.6124 38.5728 15.0704 39.1374 15.6631 39.5354C16.2559 39.9333 16.956 40.1462 17.6728 40.1464H20.5903C21.3904 40.1488 22.1682 39.8859 22.7991 39.3999C23.43 38.9139 23.8775 38.2329 24.0699 37.466L24.7395 34.7974C25.222 34.4747 25.6171 34.0401 25.8902 33.5317C26.1633 33.0232 26.306 32.4564 26.3059 31.8809V29.7319C27.7738 28.7956 29.0366 27.5781 30.0197 26.1514C31.0029 24.7248 31.6863 23.1179 32.0297 21.4259C32.373 19.7339 32.3693 17.9911 32.0188 16.3005C31.6682 14.6099 30.9779 13.006 29.9887 11.5834H30.1202C30.5916 11.5859 31.0587 11.4952 31.494 11.3168C31.9293 11.1383 32.3241 10.8757 32.6551 10.5443L34.3531 8.86762C34.5363 8.68645 34.6968 8.48428 34.8314 8.26543H48.2354C48.5005 8.26895 48.7646 8.29661 49.0246 8.34808V15.3501C49.0273 16.2887 49.4062 17.1881 50.0783 17.8518C50.7504 18.5156 51.6612 18.8897 52.6117 18.8924H59.7024C59.7545 19.1491 59.7825 19.41 59.7861 19.6717V36.0491C57.3798 34.3962 54.5759 33.3969 51.6553 33.1512C48.7347 32.9056 45.8 33.4222 43.1453 34.6493C40.4906 35.8764 38.2091 37.771 36.5294 40.1431C34.8497 42.5152 33.8308 45.2815 33.5748 48.165C33.3188 51.0485 33.8347 53.9477 35.0707 56.5723C36.3068 59.1968 38.2197 61.4545 40.6176 63.1191C43.0156 64.7837 45.8145 65.7967 48.7338 66.0566C51.6531 66.3166 54.5903 65.8143 57.2511 64.6002ZM45.4374 24.7963C45.4374 25.1094 45.5634 25.4098 45.7876 25.6312C46.0119 25.8526 46.316 25.9771 46.6331 25.9771H53.8075C54.1246 25.9771 54.4287 25.8526 54.653 25.6312C54.8772 25.4098 55.0032 25.1094 55.0032 24.7963C55.0032 24.4831 54.8772 24.1828 54.653 23.9613C54.4287 23.7399 54.1246 23.6155 53.8075 23.6155H46.6331C46.316 23.6155 46.0119 23.7399 45.7876 23.9613C45.5634 24.1828 45.4374 24.4831 45.4374 24.7963ZM34.6759 17.7116C34.6759 18.0248 34.8019 18.3251 35.0261 18.5466C35.2504 18.768 35.5545 18.8924 35.8716 18.8924H44.2417C44.5588 18.8924 44.8629 18.768 45.0872 18.5466C45.3114 18.3251 45.4374 18.0248 45.4374 17.7116C45.4374 17.3985 45.3114 17.0981 45.0872 16.8767C44.8629 16.6553 44.5588 16.5309 44.2417 16.5309H35.8716C35.5545 16.5309 35.2504 16.6553 35.0261 16.8767C34.8019 17.0981 34.6759 17.3985 34.6759 17.7116ZM33.4802 24.7963C33.4802 25.1094 33.6062 25.4098 33.8304 25.6312C34.0547 25.8526 34.3588 25.9771 34.6759 25.9771H41.8502C42.1674 25.9771 42.4715 25.8526 42.6957 25.6312C42.92 25.4098 43.046 25.1094 43.046 24.7963C43.046 24.4831 42.92 24.1828 42.6957 23.9613C42.4715 23.7399 42.1674 23.6155 41.8502 23.6155H34.6759C34.3588 23.6155 34.0547 23.7399 33.8304 23.9613C33.6062 24.1828 33.4802 24.4831 33.4802 24.7963ZM28.6973 31.8809C28.6973 32.1941 28.8233 32.4944 29.0475 32.7159C29.2718 32.9373 29.5759 33.0617 29.893 33.0617H40.6545C40.9716 33.0617 41.2758 32.9373 41.5 32.7159C41.7243 32.4944 41.8502 32.1941 41.8502 31.8809C41.8502 31.5678 41.7243 31.2674 41.5 31.046C41.2758 30.8246 40.9716 30.7002 40.6545 30.7002H29.893C29.5759 30.7002 29.2718 30.8246 29.0475 31.046C28.8233 31.2674 28.6973 31.5678 28.6973 31.8809ZM26.3059 38.9656C26.3059 39.2787 26.4318 39.5791 26.6561 39.8005C26.8803 40.0219 27.1845 40.1464 27.5016 40.1464H33.4802C33.7973 40.1464 34.1015 40.0219 34.3257 39.8005C34.5499 39.5791 34.6759 39.2787 34.6759 38.9656C34.6759 38.6524 34.5499 38.3521 34.3257 38.1306C34.1015 37.9092 33.7973 37.7848 33.4802 37.7848H27.5016C27.1845 37.7848 26.8803 37.9092 26.6561 38.1306C26.4318 38.3521 26.3059 38.6524 26.3059 38.9656ZM19.1315 46.0502C19.1315 46.3634 19.2575 46.6637 19.4818 46.8852C19.706 47.1066 20.0101 47.231 20.3273 47.231H29.893C30.2102 47.231 30.5143 47.1066 30.7385 46.8852C30.9628 46.6637 31.0888 46.3634 31.0888 46.0502C31.0888 45.7371 30.9628 45.4367 30.7385 45.2153C30.5143 44.9939 30.2102 44.8695 29.893 44.8695H20.3273C20.0101 44.8695 19.706 44.9939 19.4818 45.2153C19.2575 45.4367 19.1315 45.7371 19.1315 46.0502ZM19.1315 53.1349C19.1315 53.448 19.2575 53.7484 19.4818 53.9698C19.706 54.1912 20.0101 54.3157 20.3273 54.3157H29.893C30.2102 54.3157 30.5143 54.1912 30.7385 53.9698C30.9628 53.7484 31.0888 53.448 31.0888 53.1349C31.0888 52.8217 30.9628 52.5214 30.7385 52.2999C30.5143 52.0785 30.2102 51.9541 29.893 51.9541H20.3273C20.0101 51.9541 19.706 52.0785 19.4818 52.2999C19.2575 52.5214 19.1315 52.8217 19.1315 53.1349ZM33.4802 60.2195C33.4802 59.9064 33.3542 59.606 33.13 59.3846C32.9057 59.1632 32.6016 59.0388 32.2845 59.0388H20.3273C20.0101 59.0388 19.706 59.1632 19.4818 59.3846C19.2575 59.606 19.1315 59.9064 19.1315 60.2195C19.1315 60.5327 19.2575 60.833 19.4818 61.0545C19.706 61.2759 20.0101 61.4003 20.3273 61.4003H32.2845C32.6016 61.4003 32.9057 61.2759 33.13 61.0545C33.3542 60.833 33.4802 60.5327 33.4802 60.2195ZM69.5551 63.9626L64.1983 58.6727C62.9432 60.5497 61.3162 62.1564 59.4154 63.3958L64.7722 68.6857C65.0863 68.9958 65.4591 69.2418 65.8694 69.4097C66.2797 69.5775 66.7195 69.6639 67.1637 69.6639C67.6078 69.6639 68.0476 69.5775 68.4579 69.4097C68.8682 69.2418 69.2411 68.9958 69.5551 68.6857C69.8692 68.3756 70.1183 68.0074 70.2882 67.6022C70.4582 67.197 70.5457 66.7627 70.5457 66.3241C70.5457 65.8856 70.4582 65.4513 70.2882 65.0461C70.1183 64.6409 69.8692 64.2727 69.5551 63.9626ZM50.2203 35.4233C53.0582 35.4233 55.8324 36.2543 58.192 37.8112C60.5516 39.3682 62.3907 41.5811 63.4767 44.1702C64.5627 46.7593 64.8469 49.6083 64.2932 52.3568C63.7396 55.1054 62.373 57.6301 60.3663 59.6118C58.3596 61.5934 55.8029 62.9429 53.0196 63.4896C50.2362 64.0363 47.3512 63.7557 44.7293 62.6833C42.1074 61.6108 39.8665 59.7947 38.2898 57.4646C36.7132 55.1345 35.8716 52.395 35.8716 49.5926C35.8716 45.8346 37.3834 42.2306 40.0743 39.5733C42.7652 36.9161 46.4148 35.4233 50.2203 35.4233ZM50.2203 40.1464C48.3284 40.1464 46.4789 40.7004 44.9058 41.7383C43.3328 42.7763 42.1067 44.2516 41.3827 45.9776C40.6587 47.7037 40.4692 49.603 40.8383 51.4354C41.2074 53.2678 42.1185 54.9509 43.4563 56.272C44.7941 57.5931 46.4985 58.4928 48.3541 58.8572C50.2097 59.2217 52.133 59.0347 53.881 58.3197C55.6289 57.6047 57.1228 56.394 58.1739 54.8406C59.225 53.2872 59.7861 51.4608 59.7861 49.5926C59.7861 47.0873 58.7782 44.6846 56.9843 42.9131C55.1904 41.1416 52.7573 40.1464 50.2203 40.1464ZM23.9144 31.8809V30.7002H14.3487V31.8809C14.3496 32.1938 14.4758 32.4936 14.6999 32.7149C14.9239 32.9361 15.2275 33.0608 15.5444 33.0617H22.7187C23.0355 33.0608 23.3392 32.9361 23.5632 32.7149C23.7872 32.4936 23.9135 32.1938 23.9144 31.8809ZM17.6728 37.7848H20.5903C20.8576 37.7857 21.1175 37.6976 21.3279 37.5348C21.5383 37.372 21.6871 37.1439 21.7502 36.8874L22.1208 35.4233H16.1422L16.5129 36.8874C16.576 37.1439 16.7248 37.372 16.9352 37.5348C17.1456 37.6976 17.4054 37.7857 17.6728 37.7848ZM17.9358 22.9237L14.699 19.7272C14.4812 19.5045 14.3607 19.2062 14.3634 18.8967C14.3661 18.5871 14.4919 18.2909 14.7136 18.072C14.9353 17.8531 15.2352 17.7289 15.5487 17.7262C15.8622 17.7235 16.1642 17.8425 16.3898 18.0576L19.1315 20.765L21.8733 18.0576C22.0988 17.8425 22.4009 17.7235 22.7144 17.7262C23.0279 17.7289 23.3278 17.8531 23.5495 18.072C23.7712 18.2909 23.897 18.5871 23.8997 18.8967C23.9024 19.2062 23.7819 19.5045 23.5641 19.7272L20.3273 22.9237V28.3386H24.022C26.1748 27.254 27.8953 25.4855 28.9062 23.3178C29.9172 21.15 30.1598 18.7094 29.5951 16.3889C29.0303 14.0684 27.691 12.0032 25.7928 10.526C23.8947 9.04871 21.5483 8.24538 19.1315 8.24538C16.7148 8.24538 14.3684 9.04871 12.4702 10.526C10.5721 12.0032 9.23281 14.0684 8.66803 16.3889C8.10325 18.7094 8.34588 21.15 9.35684 23.3178C10.3678 25.4855 12.0882 27.254 14.241 28.3386H17.9358V22.9237ZM7.2939 28.9172L5.60793 30.5821C5.38436 30.8029 5.25876 31.1023 5.25876 31.4145C5.25876 31.7267 5.38436 32.0262 5.60793 32.247C5.83151 32.4677 6.13474 32.5918 6.45092 32.5918C6.7671 32.5918 7.07033 32.4677 7.2939 32.247L8.97987 30.5821C9.09057 30.4728 9.17838 30.343 9.23829 30.2001C9.29821 30.0573 9.32904 29.9042 9.32904 29.7496C9.32904 29.595 9.29821 29.4419 9.23829 29.2991C9.17838 29.1563 9.09057 29.0265 8.97987 28.9172C8.86916 28.8079 8.73774 28.7211 8.5931 28.662C8.44846 28.6028 8.29344 28.5724 8.13688 28.5724C7.98033 28.5724 7.8253 28.6028 7.68066 28.662C7.53603 28.7211 7.4046 28.8079 7.2939 28.9172ZM30.9692 8.86762L32.6551 7.20273C32.8787 6.98195 33.0043 6.68251 33.0043 6.37028C33.0043 6.05805 32.8787 5.75861 32.6551 5.53784C32.4316 5.31706 32.1283 5.19302 31.8122 5.19302C31.496 5.19302 31.1928 5.31706 30.9692 5.53784L29.2832 7.20273C29.1725 7.31205 29.0847 7.44183 29.0248 7.58466C28.9649 7.72749 28.934 7.88058 28.934 8.03517C28.934 8.18977 28.9649 8.34286 29.0248 8.48569C29.0847 8.62852 29.1725 8.7583 29.2832 8.86762C29.5068 9.0884 29.81 9.21243 30.1262 9.21243C30.2828 9.21243 30.4378 9.18198 30.5824 9.12282C30.7271 9.06365 30.8585 8.97694 30.9692 8.86762ZM19.1315 4.7231C19.4484 4.7222 19.752 4.5975 19.976 4.37626C20.2001 4.15502 20.3263 3.85521 20.3273 3.54233V1.18078C20.3273 0.867614 20.2013 0.567279 19.977 0.345841C19.7528 0.124403 19.4487 0 19.1315 0C18.8144 0 18.5103 0.124403 18.286 0.345841C18.0618 0.567279 17.9358 0.867614 17.9358 1.18078V3.54233C17.9367 3.85521 18.063 4.15502 18.2871 4.37626C18.5111 4.5975 18.8147 4.7222 19.1315 4.7231ZM3.58716 17.7116H1.19572C0.878596 17.7116 0.57446 17.836 0.350219 18.0575C0.125977 18.2789 0 18.5792 0 18.8924C0 19.2056 0.125977 19.5059 0.350219 19.7273C0.57446 19.9488 0.878596 20.0732 1.19572 20.0732H3.58716C3.90429 20.0732 4.20843 19.9488 4.43267 19.7273C4.65691 19.5059 4.78289 19.2056 4.78289 18.8924C4.78289 18.5792 4.65691 18.2789 4.43267 18.0575C4.20843 17.836 3.90429 17.7116 3.58716 17.7116ZM7.2939 8.86762C7.51747 9.0884 7.8207 9.21243 8.13688 9.21243C8.45306 9.21243 8.75629 9.0884 8.97987 8.86762C9.20344 8.64684 9.32904 8.3474 9.32904 8.03517C9.32904 7.72295 9.20344 7.42351 8.97987 7.20273L7.2939 5.53784C7.1832 5.42852 7.05177 5.3418 6.90714 5.28264C6.7625 5.22347 6.60747 5.19302 6.45092 5.19302C6.29436 5.19302 6.13934 5.22347 5.9947 5.28264C5.85006 5.3418 5.71864 5.42852 5.60793 5.53784C5.49723 5.64715 5.40942 5.77693 5.34951 5.91976C5.28959 6.0626 5.25876 6.21568 5.25876 6.37028C5.25876 6.52488 5.28959 6.67797 5.34951 6.8208C5.40942 6.96363 5.49723 7.09341 5.60793 7.20273L7.2939 8.86762Z" fill="#6A0DAD"/>
</svg>
