<svg width="50" height="50" viewBox="0 0 50 50" fill="none" xmlns="http://www.w3.org/2000/svg">
<path d="M6.26515 29.8806V26.6253C6.26515 23.708 8.43599 21.2952 11.2433 20.9069C10.3913 19.949 9.86876 18.6918 9.86876 17.312C9.86876 14.3229 12.3005 11.8911 15.2896 11.8911C18.2787 11.8911 20.7104 14.3229 20.7104 17.312C20.7104 18.692 20.1878 19.9492 19.3357 20.9071C22.1467 21.2961 24.3205 23.7086 24.3205 26.6253V29.8806H47.6368V5.92502C47.6368 4.15143 46.1934 2.70801 44.4198 2.70801H5.57079C3.7972 2.70801 2.36322 4.15143 2.36322 5.92502V29.8806H6.26515ZM40.9262 26.8952H29.0605C28.5395 26.8952 28.1171 26.4728 28.1171 25.9518C28.1171 25.4308 28.5395 25.0084 29.0605 25.0084H40.9262C41.4472 25.0084 41.8696 25.4308 41.8696 25.9518C41.8696 26.4728 41.4472 26.8952 40.9262 26.8952ZM40.9262 22.6039H26.2303C25.7093 22.6039 25.2869 22.1814 25.2869 21.6605C25.2869 21.1395 25.7093 20.7171 26.2303 20.7171H40.9262C41.4472 20.7171 41.8696 21.1395 41.8696 21.6605C41.8696 22.1814 41.4472 22.6039 40.9262 22.6039ZM40.9262 18.312H26.2303C25.7093 18.312 25.2869 17.8896 25.2869 17.3687C25.2869 16.8477 25.7093 16.4253 26.2303 16.4253H40.9262C41.4472 16.4253 41.8696 16.8477 41.8696 17.3687C41.8696 17.8896 41.4472 18.312 40.9262 18.312ZM24.3435 7.8421H40.9262C41.4472 7.8421 41.8696 8.26451 41.8696 8.7855C41.8696 9.30648 41.4472 9.72889 40.9262 9.72889H24.3435C23.8225 9.72889 23.4001 9.30648 23.4001 8.7855C23.4001 8.26451 23.8225 7.8421 24.3435 7.8421ZM24.3435 12.1334H40.9262C41.4472 12.1334 41.8696 12.5559 41.8696 13.0768C41.8696 13.5978 41.4472 14.0202 40.9262 14.0202H24.3435C23.8225 14.0202 23.4001 13.5978 23.4001 13.0768C23.4001 12.5559 23.8225 12.1334 24.3435 12.1334Z" fill="#CACACA"/>
<path d="M8.15192 26.6249V29.8802H22.4337V26.6249C22.4337 24.4787 20.6878 22.7324 18.5417 22.7324H12.0342C9.89361 22.7324 8.15192 24.4787 8.15192 26.6249Z" fill="#CACACA"/>
<path d="M2.36322 31.7676V34.1705C2.36322 35.9346 3.7972 37.378 5.57079 37.378H44.4198C46.1934 37.378 47.6368 35.9346 47.6368 34.1705V31.7676C34.2179 31.7676 15.9832 31.7676 2.36322 31.7676ZM25.7467 35.5162H24.2592C23.7383 35.5162 23.3158 35.0938 23.3158 34.5728C23.3158 34.0518 23.7383 33.6294 24.2592 33.6294H25.7467C26.2676 33.6294 26.69 34.0518 26.69 34.5728C26.69 35.0938 26.2676 35.5162 25.7467 35.5162Z" fill="#CACACA"/>
<path d="M15.2896 20.8453C17.2414 20.8453 18.8236 19.2631 18.8236 17.3113C18.8236 15.3596 17.2414 13.7773 15.2896 13.7773C13.3379 13.7773 11.7557 15.3596 11.7557 17.3113C11.7557 19.2631 13.3379 20.8453 15.2896 20.8453Z" fill="#CACACA"/>
<path d="M41.6368 46.3496C41.6368 46.8684 41.2123 47.293 40.6934 47.293H9.30662C8.78776 47.293 8.36322 46.8684 8.36322 46.3496C8.36322 45.8213 8.78776 45.4062 9.30662 45.4062H15.7406C17.9859 43.6797 19.4104 41.2552 20.1557 39.2646H29.8444C30.5802 41.2552 32.0047 43.6797 34.25 45.4062H40.6934C41.2123 45.4062 41.6368 45.8213 41.6368 46.3496Z" fill="#CACACA"/>
</svg>
