<svg width="66" height="66" viewBox="0 0 66 66" fill="none" xmlns="http://www.w3.org/2000/svg">
<path d="M24.75 2.0625C23.3585 2.06431 21.9972 2.46825 20.8299 3.22569C19.6626 3.98314 18.7392 5.06182 18.1706 6.33187C16.5368 6.66142 15.0671 7.54583 14.0108 8.83518C12.9545 10.1245 12.3766 11.7395 12.375 13.4062C12.3738 14.1013 12.4746 14.7927 12.6741 15.4584C11.816 16.6673 11.3514 18.1113 11.3438 19.5938C11.3465 19.9809 11.381 20.3672 11.4469 20.7488C8.16839 23.9939 6.28206 28.388 6.18752 33C6.19645 34.8748 6.52785 36.7341 7.1672 38.4966C4.26173 40.9371 2.41589 44.4093 2.01786 48.1829C1.61983 51.9564 2.70064 55.7373 5.03298 58.7303C7.36532 61.7234 10.7674 63.6954 14.5239 64.2316C18.2803 64.7677 22.0983 63.8264 25.1748 61.6054C28.2514 59.3844 30.3469 56.0569 31.0205 52.3227C31.6942 48.5885 30.8935 44.7386 28.7869 41.5826C26.6803 38.4266 23.4319 36.2104 19.7249 35.4003C16.0179 34.5901 12.1412 35.249 8.91002 37.2384C8.47748 35.867 8.25496 34.438 8.25002 33C8.29464 29.2897 9.69593 25.7241 12.1894 22.9763C12.7276 23.9889 13.4995 24.8586 14.4411 25.5132C15.3827 26.1678 16.4668 26.5885 17.6035 26.7403C17.86 28.5435 18.7886 30.1831 20.2032 31.3303C21.6178 32.4775 23.4138 33.0476 25.2311 32.9263C27.0484 32.805 28.7527 32.0012 30.0022 30.6761C31.2518 29.351 31.9542 27.6025 31.9688 25.7812V9.28125C31.9666 7.36739 31.2053 5.53254 29.852 4.17923C28.4987 2.82593 26.6639 2.06468 24.75 2.0625ZM16.5 37.125C18.9476 37.125 21.3401 37.8508 23.3752 39.2106C25.4103 40.5703 26.9964 42.5031 27.933 44.7643C28.8697 47.0255 29.1147 49.5137 28.6372 51.9142C28.1597 54.3148 26.9811 56.5198 25.2505 58.2504C23.5198 59.9811 21.3148 61.1597 18.9143 61.6372C16.5137 62.1147 14.0255 61.8696 11.7643 60.933C9.50307 59.9964 7.57036 58.4102 6.21058 56.3752C4.8508 54.3401 4.12502 51.9475 4.12502 49.5C4.12775 46.2188 5.43242 43.0727 7.75259 40.7526C10.0728 38.4324 13.2188 37.1277 16.5 37.125Z" fill="#6A0DAD"/>
<path d="M58.8328 38.4965C59.4722 36.734 59.8036 34.8747 59.8125 32.9999C59.718 28.3879 57.8316 23.9938 54.5531 20.7487C54.6191 20.3671 54.6535 19.9808 54.6563 19.5937C54.6486 18.1112 54.1841 16.6672 53.3259 15.4584C53.5255 14.7926 53.6262 14.1012 53.625 13.4062C53.6234 11.7394 53.0455 10.1244 51.9892 8.8351C50.9329 7.54576 49.4633 6.66135 47.8294 6.3318C47.1555 4.82302 45.984 3.59138 44.5108 2.8429C43.0376 2.09441 41.3521 1.87448 39.7362 2.21989C38.1202 2.56529 36.6719 3.45509 35.6335 4.74044C34.595 6.02579 34.0294 7.62875 34.0313 9.28117V25.7812C34.0458 27.6025 34.7483 29.3509 35.9978 30.676C37.2474 32.0011 38.9516 32.8049 40.7689 32.9262C42.5862 33.0476 44.3822 32.4775 45.7968 31.3302C47.2114 30.183 48.14 28.5434 48.3966 26.7402C49.5333 26.5884 50.6173 26.1678 51.5589 25.5131C52.5005 24.8585 53.2724 23.9888 53.8106 22.9762C56.3041 25.724 57.7054 29.2896 57.75 32.9999C57.7451 34.4379 57.5225 35.8669 57.09 37.2384C53.9245 35.2962 50.1295 34.6565 46.5023 35.4537C42.875 36.2508 39.6979 38.4228 37.6385 41.5133C35.5791 44.6038 34.7977 48.3722 35.4584 52.0268C36.1192 55.6813 38.1706 58.9376 41.1818 61.1113C44.193 63.2851 47.9294 64.2071 51.6062 63.6838C55.2829 63.1604 58.6137 61.2324 60.8988 58.3047C63.1838 55.3771 64.2452 51.6778 63.8599 47.984C63.4747 44.2903 61.6728 40.8896 58.8328 38.4965ZM49.5 61.8749C47.0525 61.8749 44.6599 61.1491 42.6248 59.7894C40.5898 58.4296 39.0036 56.4969 38.067 54.2356C37.1304 51.9744 36.8853 49.4862 37.3628 47.0857C37.8403 44.6852 39.0189 42.4801 40.7496 40.7495C42.4802 39.0188 44.6852 37.8402 47.0858 37.3627C49.4863 36.8852 51.9745 37.1303 54.2357 38.0669C56.4969 39.0035 58.4297 40.5897 59.7894 42.6247C61.1492 44.6598 61.875 47.0524 61.875 49.4999C61.8723 52.7811 60.5676 55.9272 58.2474 58.2474C55.9273 60.5675 52.7812 61.8722 49.5 61.8749Z" fill="#6A0DAD"/>
<path d="M58.7812 50.5312H57.75V43.3125C57.7476 42.4927 57.4208 41.7073 56.8412 41.1276C56.2615 40.5479 55.476 40.2212 54.6562 40.2188H44.3438C43.524 40.2212 42.7385 40.5479 42.1588 41.1276C41.5792 41.7073 41.2524 42.4927 41.25 43.3125V50.5312H40.2188C39.9452 50.5312 39.6829 50.6399 39.4895 50.8333C39.2961 51.0267 39.1875 51.289 39.1875 51.5625V53.625C39.1899 54.4448 39.5167 55.2302 40.0963 55.8099C40.676 56.3896 41.4615 56.7163 42.2812 56.7188H56.7188C57.5385 56.7163 58.324 56.3896 58.9037 55.8099C59.4833 55.2302 59.8101 54.4448 59.8125 53.625V51.5625C59.8125 51.289 59.7039 51.0267 59.5105 50.8333C59.3171 50.6399 59.0548 50.5312 58.7812 50.5312ZM43.3125 43.3125C43.3125 43.039 43.4211 42.7767 43.6145 42.5833C43.8079 42.3899 44.0702 42.2812 44.3438 42.2812H54.6562C54.9298 42.2812 55.1921 42.3899 55.3855 42.5833C55.5789 42.7767 55.6875 43.039 55.6875 43.3125V50.5312H43.3125V43.3125Z" fill="#6A0DAD"/>
<path d="M5.15625 47.4379C5.1569 47.6593 5.22828 47.8748 5.35999 48.0529C5.49169 48.231 5.67684 48.3624 5.88844 48.4279L9.28125 49.4385V54.6566C9.28125 54.9301 9.3899 55.1924 9.5833 55.3858C9.77669 55.5792 10.039 55.6879 10.3125 55.6879H22.6875C22.961 55.6879 23.2233 55.5792 23.4167 55.3858C23.6101 55.1924 23.7188 54.9301 23.7188 54.6566V49.4385L25.7812 48.8197V52.5941H27.8438V47.4379C27.8431 47.2164 27.7717 47.0009 27.64 46.8228C27.5083 46.6447 27.3232 46.5133 27.1116 46.4479L16.7991 43.3541C16.603 43.3025 16.397 43.3025 16.2009 43.3541L5.88844 46.4479C5.67684 46.5133 5.49169 46.6447 5.35999 46.8228C5.22828 47.0009 5.1569 47.2164 5.15625 47.4379ZM21.6562 53.6254H11.3438V50.0572L16.2009 51.5216C16.3965 51.5766 16.6035 51.5766 16.7991 51.5216L21.6562 50.0572V53.6254Z" fill="#6A0DAD"/>
</svg>
