<svg width="67" height="61" viewBox="0 0 67 61" fill="none" xmlns="http://www.w3.org/2000/svg">
<path fill-rule="evenodd" clip-rule="evenodd" d="M64.5183 13.2831L64.6156 13.3974C65.3928 14.3399 65.7225 15.5 65.6265 16.6225C65.4144 19.1025 63.2026 20.9499 60.6916 20.7404C58.1805 20.5308 56.3097 18.3465 56.5219 15.8667C56.7341 13.3868 58.9458 11.5392 61.4568 11.7489C62.5983 11.8441 63.7036 12.361 64.5133 13.2777C64.5149 13.2798 64.5164 13.2813 64.5183 13.2831ZM11.0946 45.4477L17.4361 56.39C17.4717 56.4514 17.5492 56.4747 17.6134 56.4435C20.9176 54.8354 25.1283 54.3805 28.4634 56.0325C31.0974 57.3371 32.7035 57.2568 35.6625 56.8405C38.1726 56.4872 43.4731 53.0787 48.6385 49.0259C52.0317 46.3636 55.3321 43.438 57.7388 40.9113C59.7982 38.7494 61.1671 37.0086 61.2567 36.215C61.2775 36.0295 60.7966 35.8084 60.6562 35.7684C60.33 35.6755 59.8695 35.6597 59.3719 35.666C57.3711 35.6816 49.6954 40.8672 45.0599 43.9988C43.8297 44.8298 42.8069 45.5209 42.1312 45.9499C41.9036 46.0945 39.8306 47.7394 38.6538 48.1644C35.7247 49.2222 34.2797 49.1251 31.4962 48.5753L23.5575 47.0072C22.8937 46.8766 22.4629 46.2393 22.5952 45.5839C22.7274 44.9285 23.3727 44.5029 24.0364 44.6335L33.9806 46.5977C34.7868 46.7569 35.567 46.2728 35.7669 45.4832C35.8826 45.0267 35.9491 44.6846 35.7251 44.2263C35.5756 43.9203 35.3175 43.664 34.977 43.5112L25.2161 39.1295C24.3059 38.7209 23.3985 38.7491 22.5179 39.2174L11.1479 45.2637C11.0806 45.2996 11.0567 45.3821 11.0946 45.4477ZM8.20916 45.2217L15.6475 58.3214C15.9098 58.7835 15.9037 59.1307 15.7882 59.1975L15.787 59.1954L12.8046 60.8959C12.4254 61.1122 11.9191 60.9806 11.6949 60.6016L11.6969 60.6005L3.81979 47.7207C3.59334 47.3505 3.73416 46.8461 4.1179 46.6246L4.11907 46.6266L7.10148 44.926C7.47881 44.7057 7.99435 44.8435 8.20916 45.2217ZM38.3646 41.6819C37.8508 40.3809 37.4609 38.8968 37.9641 37.9175C39.2553 35.404 41.8876 36.0227 42.5962 34.4592C43.2358 33.0481 41.8583 31.1197 42.909 28.9132C43.2379 28.2227 44.3774 27.1728 45.1366 26.5056C45.1976 26.4519 45.1974 26.3586 45.1359 26.3054C43.6105 24.9828 41.8597 23.9213 39.9415 23.1793C39.8803 23.1558 39.8123 23.1779 39.7775 23.2328C39.2787 24.0191 38.7078 24.7565 38.051 25.395C34.3247 29.0163 32.4871 27.0259 30.1724 27.8644C27.5631 28.8096 29.0198 31.0906 26.4215 32.9859C24.2057 34.6022 19.806 33.6775 17.2186 32.9985C17.1517 32.981 17.0828 33.0155 17.0578 33.0792C16.1541 35.3682 15.7433 37.862 15.8846 40.3806C15.8875 40.4335 15.861 40.4804 15.8137 40.5056L14.1198 41.4064C14.0345 41.4518 13.93 41.397 13.9206 41.3017C12.7915 29.9487 21.8168 19.9791 33.4999 19.9791C42.4108 19.9791 50.1113 25.8923 52.449 34.1826C52.4969 34.3528 52.7217 35.4085 52.9223 36.3564C52.9342 36.4128 52.9101 36.4679 52.8602 36.4979C51.3394 37.4129 49.9591 38.3275 49.1417 38.8594C47.3858 40.0016 45.6491 41.1719 43.9136 42.3444C42.9603 42.9884 42.0049 43.647 41.0334 44.2637C40.4787 44.6158 39.933 44.8331 39.3368 44.9332C39.2646 44.9453 39.1957 44.8984 39.1814 44.8275C38.9148 43.4999 38.8947 43.0248 38.3646 41.6819ZM52.586 29.4046C55.223 28.6675 58.235 28.0996 60.8135 28.3746C62.4005 28.5438 63.9947 28.6599 65.6226 29.2725C66.5963 29.6389 67.4714 28.4613 66.7121 27.6399L66.7096 27.6372C63.5644 24.0765 59.8607 21.8297 55.2702 21.1977C55.2014 21.1882 55.1515 21.1298 55.1537 21.0612C55.2943 16.5026 53.6548 12.4299 50.6096 8.79703C49.9435 8.00225 48.6349 8.61092 48.8337 9.62963C49.1725 11.3666 49.0201 12.8325 48.9231 14.4623C48.7702 17.0324 47.6769 19.9032 46.4875 22.3552C46.4595 22.4129 46.476 22.4804 46.5274 22.5192C48.9748 24.3643 50.9825 26.69 52.4302 29.3395C52.4605 29.3951 52.5243 29.4218 52.586 29.4046ZM38.5588 18.6579C38.5312 18.7152 38.4685 18.7449 38.4059 18.7304C35.185 17.9863 31.8134 17.987 28.5938 18.7294C28.5312 18.7438 28.4687 18.7142 28.4409 18.6569C27.3727 16.4491 25.9801 14.1247 24.2828 12.532C23.2483 11.5613 21.8686 10.1953 20.5339 9.50465C19.5433 8.99206 19.9506 7.59969 20.9852 7.60832C25.7653 7.64888 29.9754 9.04297 33.4096 12.0876C33.4613 12.1333 33.5387 12.1333 33.5903 12.0876C37.0284 9.03952 41.2299 7.65247 46.0146 7.60832V7.60947C47.0533 7.60228 47.4261 8.98055 46.5102 9.48019C44.998 10.3052 43.8717 11.4486 42.7171 12.532C41.0197 14.1247 39.6269 16.4499 38.5588 18.6579ZM20.5102 22.3502C19.3218 19.8994 18.2298 17.031 18.0771 14.4623C17.9794 12.8204 17.8283 11.3793 18.1669 9.62718C18.3634 8.61049 17.0563 8.00254 16.3905 8.79703C13.3453 12.4299 11.7057 16.5026 11.8463 21.0612C11.8485 21.1297 11.7986 21.1882 11.7298 21.1977C7.13934 21.8298 3.43562 24.0767 0.290389 27.6372L0.287913 27.6399C-0.471415 28.4613 0.403691 29.6388 1.37739 29.2725C3.00542 28.6599 4.59937 28.5438 6.18647 28.3746C8.76344 28.0997 11.7735 28.6668 14.409 29.4032C14.4708 29.4205 14.5344 29.3937 14.5649 29.3381C16.013 26.6856 18.0292 24.3538 20.4701 22.5143C20.5217 22.4753 20.5381 22.408 20.5102 22.3502ZM2.38895 13.3918L2.48667 13.2779C3.29639 12.3613 4.40189 11.8444 5.54321 11.7492C8.04591 11.5403 10.2665 13.3942 10.4781 15.867C10.6896 18.3388 8.81237 20.5317 6.30851 20.7406C3.79751 20.9502 1.58594 19.1028 1.3736 16.6228C1.27749 15.5001 1.60734 14.3402 2.38459 13.3977C2.38619 13.3955 2.3875 13.3938 2.38895 13.3918ZM33.5 0C30.9769 0 28.9311 2.02045 28.9311 4.51221C28.9311 7.00397 30.9769 9.02442 33.5 9.02442C36.0231 9.02442 38.0689 7.00397 38.0689 4.51221C38.0689 2.02045 36.0231 0 33.5 0Z" fill="#6A0DAD"/>
</svg>
