<svg width="65" height="65" viewBox="0 0 65 65" fill="none" xmlns="http://www.w3.org/2000/svg">
<g clip-path="url(#clip0_2001_572)">
<path fill-rule="evenodd" clip-rule="evenodd" d="M39.9902 64.2383C39.2285 64.2383 38.5938 64.2383 37.832 64.1113C35.293 62.334 33.1348 57.6367 31.8652 51.2891C34.4043 51.0352 37.1973 50.9082 39.9902 50.9082C42.7832 50.9082 45.5762 51.0352 48.1152 51.2891C46.8457 57.6367 44.6875 62.334 42.1484 64.1113C41.5137 64.2383 40.752 64.2383 39.9902 64.2383ZM35.166 63.8574C31.4844 63.0957 28.1836 61.5723 25.1367 59.4141C23.1055 57.7637 21.3281 55.9863 19.8047 53.9551C22.8516 52.8125 26.4062 52.0508 30.3418 51.543C31.3574 56.875 33.0078 61.1914 35.166 63.8574ZM49.7656 51.543C53.5742 52.0508 57.1289 52.8125 60.1758 53.9551C56.6211 58.9062 51.1621 62.5879 44.9414 63.7305C46.9727 61.1914 48.623 56.875 49.7656 51.543ZM18.7891 52.5586C18.4082 51.9238 18.0273 51.2891 17.7734 50.6543C18.1543 50.9082 18.6621 51.0352 19.1699 51.0352C19.9316 51.0352 20.5664 50.6543 21.0742 50.1465L23.2324 47.9883C23.7402 47.4805 24.1211 46.8457 24.1211 46.084C24.1211 45.3223 23.7402 44.5605 23.2324 44.0527L22.7246 43.5449H23.4863C25.0098 43.5449 26.2793 42.2754 26.2793 40.752V39.9902H29.0723C29.1992 43.5449 29.4531 46.8457 29.9609 49.8926C25.8984 50.4004 22.0898 51.2891 18.7891 52.5586ZM23.7402 31.1035H29.3262C29.1992 33.3887 29.0723 35.6738 29.0723 38.0859V38.4668H26.2793V37.7051C26.2793 36.1816 25.0098 34.9121 23.4863 34.9121H22.7246L23.2324 34.4043C24.1211 33.5156 24.375 32.2461 23.7402 31.1035ZM30.8496 31.1035H49.1309C49.3848 33.3887 49.3848 35.6738 49.3848 38.0859V38.4668H30.5957C30.5957 38.3398 30.5957 38.2129 30.5957 38.0859C30.5957 35.6738 30.7227 33.3887 30.8496 31.1035ZM49.3848 39.9902C49.2578 43.418 49.0039 46.7188 48.4961 49.6387C45.7031 49.3848 42.9102 49.1309 39.9902 49.1309C37.0703 49.1309 34.2773 49.3848 31.4844 49.6387C30.9766 46.7188 30.7227 43.418 30.5957 39.9902H49.3848ZM50.6543 31.1035H63.0957C63.4766 31.1035 63.7305 31.3574 63.8574 31.7383C64.4922 33.8965 64.873 36.1816 65 38.4668H50.9082C50.9082 38.3398 50.9082 38.2129 50.9082 38.0859C50.9082 35.6738 50.9082 33.3887 50.6543 31.1035ZM65 39.9902C64.873 44.6875 63.4766 48.877 61.1914 52.5586C57.8906 51.2891 54.082 50.4004 50.0195 49.8926C50.5273 46.8457 50.9082 43.5449 50.9082 39.9902H65Z" fill="#6A0DAD"/>
<path fill-rule="evenodd" clip-rule="evenodd" d="M24.1211 29.5801V21.4551C24.1211 20.9473 24.502 20.6934 24.8828 20.6934H29.3262C29.707 20.6934 30.0879 20.9473 30.0879 21.4551V29.5801H24.1211Z" fill="#6A0DAD"/>
<path fill-rule="evenodd" clip-rule="evenodd" d="M32.7539 29.5801V16.6309C32.7539 16.123 33.1348 15.8691 33.5156 15.8691H37.959C38.3398 15.8691 38.7207 16.123 38.7207 16.6309V29.5801H32.7539Z" fill="#6A0DAD"/>
<path fill-rule="evenodd" clip-rule="evenodd" d="M41.3867 29.5801V21.4551C41.3867 20.9473 41.6406 20.6934 42.1484 20.6934H46.4648C46.9727 20.6934 47.2266 20.9473 47.2266 21.4551V29.5801H41.3867Z" fill="#6A0DAD"/>
<path fill-rule="evenodd" clip-rule="evenodd" d="M49.8926 29.5801V10.791C49.8926 10.2832 50.2734 10.0293 50.6543 10.0293H55.0977C55.4785 10.0293 55.8594 10.2832 55.8594 10.791V29.5801H49.8926Z" fill="#6A0DAD"/>
<path fill-rule="evenodd" clip-rule="evenodd" d="M26.2793 18.6621C24.6289 18.6621 23.2324 17.2656 23.2324 15.7422C23.2324 14.0918 24.6289 12.6953 26.2793 12.6953C27.9297 12.6953 29.1992 14.0918 29.1992 15.7422C29.1992 17.2656 27.9297 18.6621 26.2793 18.6621Z" fill="#6A0DAD"/>
<path fill-rule="evenodd" clip-rule="evenodd" d="M44.3066 17.9004C42.6562 17.9004 41.2598 16.5039 41.2598 14.8535C41.2598 13.3301 42.6562 11.9336 44.3066 11.9336C45.957 11.9336 47.2266 13.3301 47.2266 14.8535C47.2266 16.5039 45.957 17.9004 44.3066 17.9004Z" fill="#6A0DAD"/>
<path fill-rule="evenodd" clip-rule="evenodd" d="M43.6719 12.5684L48.3691 2.28516C48.75 1.52344 49.6387 1.14258 50.4004 1.52344C51.1621 1.9043 51.543 2.79297 51.1621 3.55469L46.3379 14.0918C46.084 14.5996 45.5762 14.9805 44.9414 14.9805C44.6875 14.9805 44.5605 14.8535 44.3066 14.8535C44.3066 14.8535 44.3066 14.8535 44.3066 14.7266C44.1797 14.8535 44.1797 14.8535 44.1797 14.8535C43.9258 15.2344 43.418 15.4883 42.9101 15.4883C42.6562 15.4883 42.2754 15.3613 42.0215 15.2344L34.1504 9.52148C34.1504 9.39453 34.0234 9.39453 34.0234 9.26758C34.0234 9.39453 33.8965 9.39453 33.8965 9.52148L28.5644 15.6152C28.3105 15.9961 27.9297 16.123 27.4219 16.123C27.041 16.123 26.7871 15.9961 26.5332 15.7422C25.8984 15.2344 25.7715 14.2187 26.2793 13.584L31.6113 7.49023C32.1191 6.85547 33.1348 6.85547 33.7695 7.36328V7.49023C33.7695 7.36328 33.8965 7.36328 33.8965 7.36328C34.4043 6.60156 35.293 6.47461 36.0547 6.98242L43.6719 12.5684Z" fill="#6A0DAD"/>
<path fill-rule="evenodd" clip-rule="evenodd" d="M33.7695 10.2832C32.1191 10.2832 30.8496 8.88672 30.8496 7.23633C30.8496 5.58594 32.1191 4.31641 33.7695 4.31641C35.4199 4.31641 36.8164 5.58594 36.8164 7.23633C36.8164 8.88672 35.4199 10.2832 33.7695 10.2832Z" fill="#6A0DAD"/>
<path fill-rule="evenodd" clip-rule="evenodd" d="M50.5273 4.44336C48.877 4.44336 47.6074 3.04688 47.6074 1.39648C47.6074 -0.126953 48.877 -1.52344 50.5273 -1.52344C52.1777 -1.52344 53.4473 -0.126953 53.4473 1.39648C53.4473 3.04688 52.1777 4.44336 50.5273 4.44336Z" fill="#6A0DAD"/>
<path fill-rule="evenodd" clip-rule="evenodd" d="M13.8379 51.6699H10.791C10.1562 51.6699 9.52148 51.0352 9.52148 50.4004V48.3691C9.01367 48.1152 8.50586 47.8613 7.99805 47.6074L6.47461 49.1309C6.2207 49.3848 5.9668 49.5117 5.58594 49.5117C5.20508 49.5117 4.95117 49.3848 4.69727 49.1309L2.53906 46.9727C2.03125 46.4648 2.03125 45.7031 2.53906 45.1953L3.93555 43.6719C3.68164 43.1641 3.55469 42.6562 3.30078 42.0215H1.26953C0.507812 42.0215 0 41.5137 0 40.752V37.7051C0 37.0703 0.507812 36.4355 1.26953 36.4355H3.30078C3.55469 35.9277 3.68164 35.4199 3.93555 34.9121L2.53906 33.3887C2.03125 32.8809 2.03125 32.1191 2.53906 31.6113L4.69727 29.4531C4.95117 29.1992 5.20508 29.0723 5.58594 29.0723C5.9668 29.0723 6.2207 29.1992 6.47461 29.4531L7.99805 30.8496C8.50586 30.5957 9.01367 30.4688 9.52148 30.2148V28.1836C9.52148 27.4219 10.1562 26.9141 10.791 26.9141H13.8379C14.5996 26.9141 15.1074 27.4219 15.1074 28.1836V30.2148C15.7422 30.4688 16.25 30.5957 16.7578 30.8496L18.2812 29.4531C18.5352 29.1992 18.7891 29.0723 19.1699 29.0723C19.4238 29.0723 19.8047 29.1992 20.0586 29.4531L22.2168 31.6113C22.7246 32.1191 22.7246 32.8809 22.2168 33.3887L20.6934 34.9121L21.4551 36.4355H23.4863C24.1211 36.4355 24.7559 37.0703 24.7559 37.7051V40.752C24.7559 41.5137 24.1211 42.0215 23.4863 42.0215H21.4551C21.2012 42.6562 20.9473 43.1641 20.6934 43.6719L22.2168 45.1953C22.4707 45.4492 22.5977 45.7031 22.5977 46.084C22.5977 46.3379 22.4707 46.7188 22.2168 46.9727L20.0586 49.1309C19.8047 49.3848 19.4238 49.5117 19.1699 49.5117C18.7891 49.5117 18.5352 49.3848 18.2812 49.1309L16.7578 47.6074C16.25 47.8613 15.7422 48.1152 15.1074 48.3691V50.4004C15.1074 51.0352 14.5996 51.6699 13.8379 51.6699ZM12.3145 45.5762C8.88672 45.5762 6.09375 42.7832 6.09375 39.2285C6.09375 35.8008 8.88672 33.0078 12.3145 33.0078C15.8691 33.0078 18.6621 35.8008 18.6621 39.2285C18.6621 42.7832 15.8691 45.5762 12.3145 45.5762Z" fill="#6A0DAD"/>
</g>
<defs>
<clipPath id="clip0_2001_572">
<rect width="65" height="65" fill="white"/>
</clipPath>
</defs>
</svg>
