<svg width="62" height="62" viewBox="0 0 62 62" fill="none" xmlns="http://www.w3.org/2000/svg">
<path d="M53.1589 21.0382C53.1589 21.4722 52.9853 21.8938 52.6753 22.2038L47.9385 26.9406C47.4549 27.4242 46.7729 27.5606 46.1405 27.3002C45.5205 27.0398 45.1237 26.457 45.1237 25.775V23.6794H40.2381C36.6049 23.6794 33.6413 26.6306 33.6413 30.2762L33.6289 33.897H28.3589V30.2762C28.3589 26.6306 25.3953 23.6794 21.7621 23.6794H16.8765V25.775C16.8765 26.457 16.4797 27.0398 15.8597 27.3002C15.2273 27.5606 14.5453 27.4242 14.0617 26.9406L9.32493 22.2038C9.01493 21.8938 8.84131 21.4722 8.84131 21.0382C8.84131 20.6042 9.01493 20.1826 9.32493 19.8726L14.0617 15.1358C14.5453 14.6522 15.2273 14.5158 15.8597 14.7762C16.4797 15.0366 16.8765 15.6318 16.8765 16.3014V18.4094H21.7621C24.1181 18.4094 26.3997 19.1038 28.3589 20.4306V10.585H26.2633C25.5813 10.585 24.9985 10.1882 24.7381 9.56817C24.4777 8.93576 24.6141 8.24136 25.0977 7.75782L29.8221 3.03342C30.4669 2.3886 31.5209 2.3886 32.1657 3.03342L36.8901 7.75782C37.3737 8.24136 37.5101 8.93576 37.2497 9.55576C36.9893 10.1882 36.4065 10.585 35.7245 10.585H33.6289V20.4306C35.6005 19.1038 37.8821 18.4094 40.2381 18.4094H45.1237V16.3138C45.1237 15.6318 45.5205 15.049 46.1405 14.7886C46.7729 14.5282 47.4673 14.6646 47.9509 15.1482L52.6753 19.8726C52.9853 20.1826 53.1589 20.6042 53.1589 21.0382ZM44.3797 43.693L44.3737 55.7246C44.3737 57.7796 42.7026 59.4507 40.6489 59.4507H21.3514C19.2976 59.4507 17.6265 57.7796 17.6265 55.7246L17.6205 43.693C17.6205 41.6346 19.2945 39.973 21.3529 39.973H25.5545V38.6432C25.5545 37.0532 26.8478 35.7599 28.4365 35.7599H33.5637C35.1524 35.7599 36.4457 37.0532 36.4457 38.6432V39.973H40.6473C42.7057 39.973 44.3797 41.6346 44.3797 43.693ZM27.4145 39.951H34.5857V38.6432C34.5857 38.0789 34.1267 37.6199 33.5637 37.6199H28.4365C27.8735 37.6199 27.4145 38.0789 27.4145 38.6432V39.951ZM29.4501 50.6048L32.4823 50.6726C32.5198 50.6726 32.5501 50.6423 32.5501 50.6048V47.931L29.5179 47.8632L29.4501 50.6048ZM42.5137 55.7246V49.6838C41.9625 50.0053 41.3303 50.203 40.6473 50.203H34.4101V50.6048C34.4101 51.668 33.5455 52.5326 32.4823 52.5326H29.5179C28.4547 52.5326 27.5901 51.668 27.5901 50.6048V50.203H21.3529C20.6699 50.203 20.0377 50.0053 19.4865 49.6838V55.7246C19.4865 56.7539 20.3233 57.5907 21.3514 57.5907H40.6489C41.6769 57.5907 42.5137 56.7539 42.5137 55.7246Z" fill="#6A0DAD"/>
</svg>
