<svg width="62" height="56" viewBox="0 0 62 56" fill="none" xmlns="http://www.w3.org/2000/svg">
<path fill-rule="evenodd" clip-rule="evenodd" d="M21.4765 15.9735L22.9482 16.2677C23.045 16.5453 23.1576 16.8171 23.2854 17.0818L22.4528 18.3313C22.3287 18.5176 22.273 18.7411 22.295 18.9639C22.3171 19.1867 22.4157 19.3949 22.5739 19.5533L24.3928 21.3723C24.5511 21.5306 24.7594 21.6292 24.9822 21.6513C25.205 21.6734 25.4286 21.6176 25.615 21.4934L26.8642 20.6599C27.1287 20.7882 27.4004 20.901 27.6779 20.998L27.9727 22.4692C28.0166 22.6888 28.1353 22.8864 28.3085 23.0283C28.4817 23.1703 28.6987 23.2478 28.9226 23.2478H31.4945C31.7185 23.2478 31.9355 23.1703 32.1087 23.0283C32.2819 22.8864 32.4006 22.6888 32.4445 22.4692L32.7389 20.998C33.0164 20.9011 33.2881 20.7882 33.5525 20.6599L34.8019 21.4934C34.9882 21.6176 35.2118 21.6734 35.4346 21.6513C35.6574 21.6292 35.8657 21.5306 36.0241 21.3723L37.8429 19.5533C38.0011 19.3949 38.0997 19.1867 38.1218 18.9639C38.1438 18.7411 38.0881 18.5176 37.964 18.3313L37.131 17.0818C37.2593 16.8173 37.372 16.5454 37.4687 16.2677L38.9405 15.9735C39.1601 15.9295 39.3576 15.8109 39.4996 15.6377C39.6416 15.4645 39.7191 15.2474 39.7191 15.0235V12.4515C39.7191 12.2275 39.6416 12.0105 39.4996 11.8373C39.3576 11.6641 39.1601 11.5454 38.9405 11.5015L37.4685 11.2078C37.3721 10.9301 37.2595 10.6583 37.1312 10.3937L37.964 9.14427C38.0881 8.95797 38.1438 8.73443 38.1218 8.51166C38.0997 8.28889 38.0011 8.08064 37.8429 7.92232L36.0241 6.10324C35.8658 5.94478 35.6575 5.8461 35.4346 5.82401C35.2118 5.80193 34.9881 5.85782 34.8019 5.98215L33.5525 6.81564C33.2881 6.68735 33.0164 6.57442 32.7389 6.47743L32.4442 5.00638C32.4002 4.78679 32.2815 4.58921 32.1084 4.44726C31.9352 4.3053 31.7181 4.22773 31.4942 4.22774H28.9223C28.6984 4.22781 28.4815 4.30542 28.3083 4.44737C28.1352 4.58932 28.0166 4.78685 27.9727 5.00638L27.6783 6.47743C27.4008 6.57444 27.1291 6.68737 26.8645 6.81564L25.615 5.98215C25.4287 5.85782 25.2051 5.80193 24.9822 5.82401C24.7593 5.8461 24.551 5.94478 24.3928 6.10324L22.5739 7.92232C22.4156 8.08057 22.3169 8.28883 22.2948 8.51164C22.2728 8.73444 22.3286 8.95801 22.4528 9.14427L23.2854 10.3937C23.1572 10.6583 23.0445 10.9302 22.9478 11.2078L21.4765 11.5015C21.2568 11.5454 21.0592 11.664 20.9172 11.8372C20.7752 12.0104 20.6976 12.2275 20.6976 12.4515V15.0245C20.6977 15.2484 20.7753 15.4653 20.9173 15.6384C21.0593 15.8115 21.2569 15.9296 21.4765 15.9735ZM51.8452 34.684C51.8413 34.9384 51.7375 35.181 51.5563 35.3595C51.375 35.538 51.1308 35.638 50.8764 35.638H50.8619C45.9468 35.5628 41.0551 36.3309 36.3996 37.909C36.1561 37.9914 35.8898 37.9736 35.6594 37.8597C35.429 37.7458 35.2533 37.545 35.171 37.3015C35.0886 37.058 35.1063 36.7918 35.2203 36.5613C35.3342 36.3309 35.535 36.1552 35.7785 36.0729C40.6436 34.425 45.755 33.6228 50.891 33.7009C51.0182 33.7026 51.1439 33.7295 51.2608 33.7799C51.3777 33.8303 51.4834 33.9032 51.5721 33.9945C51.6607 34.0858 51.7305 34.1937 51.7774 34.3121C51.8243 34.4304 51.8472 34.5568 51.8452 34.684ZM10.1548 34.684C10.1528 34.5568 10.1759 34.4304 10.2228 34.3121C10.2697 34.1938 10.3394 34.0859 10.4281 33.9946C10.5167 33.9033 10.6224 33.8303 10.7393 33.7799C10.8561 33.7295 10.9818 33.7027 11.109 33.7009C16.245 33.6227 21.3564 34.425 26.2215 36.0729C26.3421 36.1136 26.4534 36.1778 26.5492 36.2616C26.645 36.3454 26.7233 36.4472 26.7798 36.5613C26.8362 36.6754 26.8696 36.7995 26.878 36.9264C26.8865 37.0534 26.8699 37.1809 26.8291 37.3014C26.7883 37.422 26.7242 37.5333 26.6404 37.6291C26.5566 37.7249 26.4547 37.8032 26.3407 37.8597C26.2266 37.9161 26.1025 37.9495 25.9755 37.9579C25.8485 37.9664 25.7211 37.9498 25.6005 37.909C20.9449 36.3309 16.0531 35.5628 11.1378 35.638H11.1233C10.8689 35.638 10.6247 35.538 10.4435 35.3595C10.2622 35.181 10.1587 34.9384 10.1548 34.684ZM51.8452 41.9194C51.8414 42.1738 51.7376 42.4164 51.5563 42.5949C51.3751 42.7735 51.1309 42.8735 50.8764 42.8735H50.8619C45.9468 42.7984 41.0552 43.5663 36.3996 45.1439C36.2996 45.1783 36.1946 45.1958 36.0888 45.1958C35.8592 45.1958 35.637 45.1142 35.462 44.9656C35.2869 44.8169 35.1703 44.6109 35.1331 44.3843C35.0958 44.1577 35.1402 43.9253 35.2584 43.7284C35.3766 43.5315 35.5609 43.383 35.7785 43.3094C40.6434 41.6605 45.7549 40.8578 50.891 40.936C51.1478 40.9401 51.3926 41.0459 51.5715 41.2302C51.7505 41.4145 51.8487 41.6625 51.8452 41.9194ZM26.8283 44.5371C26.7635 44.7291 26.6401 44.8959 26.4755 45.014C26.3108 45.1322 26.1133 45.1958 25.9107 45.1958C25.805 45.1958 25.7001 45.1783 25.6002 45.1439C20.9444 43.5669 16.0529 42.799 11.1378 42.8735H11.1233C10.8664 42.8754 10.6192 42.7751 10.4362 42.5948C10.2532 42.4145 10.1493 42.1688 10.1474 41.9119C10.1455 41.655 10.2458 41.4078 10.4261 41.2248C10.6064 41.0418 10.8521 40.9379 11.109 40.936C16.2451 40.8578 21.3566 41.6606 26.2215 43.3094C26.342 43.3501 26.4534 43.4141 26.5491 43.4978C26.6449 43.5816 26.7232 43.6834 26.7796 43.7974C26.836 43.9114 26.8694 44.0354 26.8778 44.1623C26.8862 44.2893 26.8692 44.4166 26.8283 44.5371ZM7.67165 13.6147C10.4045 13.625 13.1324 13.8465 15.8311 14.2773V15.3925L13.5734 19.2602C12.7529 19.2276 11.9265 19.2167 11.109 19.2287C10.8521 19.2325 10.6072 19.3383 10.4282 19.5226C10.2493 19.707 10.1509 19.955 10.1547 20.2119C10.1585 20.4688 10.2642 20.7137 10.4486 20.8927C10.633 21.0716 10.8809 21.17 11.1378 21.1662C11.5768 21.1593 12.0184 21.1604 12.4602 21.1679L12.2681 21.4969C12.16 21.6821 12.1026 21.8925 12.1018 22.1069C12.101 22.3213 12.1568 22.5321 12.2635 22.7181C12.3703 22.904 12.5242 23.0586 12.7097 23.166C12.8953 23.2734 13.1059 23.33 13.3203 23.33H16.6198V26.7221C14.7896 26.525 12.9491 26.439 11.1085 26.4644C10.8516 26.4683 10.6067 26.574 10.4277 26.7584C10.2488 26.9427 10.1504 27.1907 10.1542 27.4476C10.158 27.7045 10.2637 27.9494 10.4481 28.1284C10.6325 28.3074 10.8804 28.4058 11.1374 28.4019C13.0098 28.3756 14.882 28.4702 16.7422 28.6853C16.92 29.2692 17.2805 29.7806 17.7708 30.1443C18.261 30.5079 18.8551 30.7046 19.4655 30.7054H23.7211V33.3338C23.7215 33.7566 23.8896 34.162 24.1885 34.461C24.4874 34.7601 24.8927 34.9283 25.3155 34.9289H30.0312V52.3373C22.9979 49.18 15.3811 47.5311 7.67165 47.497V13.6147ZM17.7686 15.6554V11.8333C18.1373 8.02512 20.5572 4.86809 24.4146 3.16793C28.9602 1.16504 34.4314 1.64942 38.0293 4.37282C41.0719 6.67735 42.9578 10.7204 42.9511 14.9252C42.9448 18.7866 41.372 22.1823 38.6358 24.2408C38.1937 24.5659 37.8353 24.9916 37.5902 25.4826C37.3451 25.9736 37.2204 26.5159 37.2263 27.0647V32.9913H25.6589V30.3622C25.6585 29.9394 25.4904 29.534 25.1915 29.235C24.8926 28.936 24.4873 28.7677 24.0645 28.7672H19.4659C19.2251 28.7672 18.9941 28.6715 18.8237 28.5011C18.6534 28.3308 18.5577 28.0998 18.5577 27.8589V22.9873C18.5573 22.5646 18.3891 22.1593 18.0902 21.8604C17.7912 21.5614 17.3859 21.3933 16.9632 21.3928H14.5721L14.9474 20.7495C14.9489 20.7478 14.9502 20.7459 14.9512 20.7438L17.6365 16.1433C17.7229 15.9952 17.7685 15.8268 17.7686 15.6554ZM54.3283 13.6147V47.4967C46.6189 47.5309 39.0021 49.1798 31.9688 52.337V34.9285H37.5693C37.9921 34.9279 38.3973 34.7597 38.6962 34.4607C38.995 34.1618 39.1632 33.7566 39.1638 33.3338V29.84C42.9789 28.8269 46.9152 28.3429 50.8622 28.4015C50.9894 28.4033 51.1157 28.3801 51.234 28.3332C51.3522 28.2862 51.4601 28.2164 51.5514 28.1278C51.6426 28.0392 51.7156 27.9334 51.766 27.8166C51.8164 27.6998 51.8433 27.5742 51.8452 27.447C51.8471 27.3198 51.8239 27.1934 51.7769 27.0752C51.73 26.9569 51.6602 26.8491 51.5716 26.7578C51.4829 26.6665 51.3772 26.5936 51.2604 26.5432C51.1436 26.4927 51.018 26.4658 50.8907 26.464C46.9383 26.4061 42.9955 26.8686 39.1638 27.8397V27.0647C39.1578 26.8162 39.2127 26.5699 39.3237 26.3475C39.4347 26.125 39.5983 25.9331 39.8005 25.7884C41.233 24.7052 42.4099 23.3203 43.2477 21.7317C45.7641 21.3186 48.3123 21.1293 50.8622 21.1662C50.9894 21.1681 51.1157 21.1449 51.234 21.0979C51.3522 21.051 51.4601 20.9812 51.5514 20.8926C51.6426 20.804 51.7156 20.6982 51.766 20.5814C51.8164 20.4646 51.8433 20.339 51.8452 20.2118C51.8471 20.0845 51.8239 19.9582 51.7769 19.8399C51.73 19.7217 51.6602 19.6138 51.5716 19.5226C51.4829 19.4313 51.3772 19.3583 51.2604 19.3079C51.1436 19.2575 51.018 19.2306 50.8907 19.2287C48.6344 19.1964 46.3788 19.3338 44.143 19.6396C44.6407 18.1191 44.8924 16.5289 44.8886 14.929C44.8886 14.7837 44.8868 14.6411 44.8835 14.4965C47.9994 13.9218 51.1599 13.6265 54.3283 13.6147ZM61.0312 17.7223C61.2882 17.7223 61.5346 17.8244 61.7163 18.0061C61.8979 18.1877 62 18.4341 62 18.6911V54.6776C62 54.9345 61.8979 55.1809 61.7163 55.3626C61.5346 55.5443 61.2882 55.6463 61.0312 55.6463H0.96875C0.711821 55.6463 0.465416 55.5443 0.28374 55.3626C0.102064 55.1809 0 54.9345 0 54.6776V18.6912C0 18.4343 0.102064 18.1878 0.28374 18.0062C0.465416 17.8245 0.711821 17.7224 0.96875 17.7224H5.73415V12.652C5.73441 12.3976 5.8346 12.1535 6.01314 11.9723C6.19167 11.7911 6.43426 11.6873 6.68861 11.6832C9.74839 11.6391 12.8065 11.8503 15.8312 12.3145V11.7877C15.8312 11.7575 15.8326 11.7283 15.8353 11.698C16.2564 7.14937 19.0985 3.39426 23.6337 1.39536C26.1386 0.298363 28.8756 -0.163341 31.6017 0.0512213C34.4665 0.274034 37.0933 1.23431 39.1989 2.82935C42.1817 5.08775 44.1555 8.61606 44.7208 12.5568C48.2145 11.9248 51.7613 11.6322 55.3114 11.6834C55.5657 11.6874 55.8083 11.7912 55.9869 11.9724C56.1654 12.1536 56.2656 12.3977 56.2658 12.6521V17.7224L61.0312 17.7223ZM25.665 13.7369C25.665 12.8383 25.9315 11.9599 26.4308 11.2128C26.93 10.4657 27.6396 9.88339 28.4698 9.53956C29.3 9.19573 30.2135 9.10579 31.0948 9.28114C31.9761 9.45648 32.7857 9.88922 33.421 10.5246C34.0564 11.1601 34.4891 11.9696 34.6643 12.8509C34.8396 13.7322 34.7496 14.6457 34.4057 15.4759C34.0618 16.3061 33.4795 17.0156 32.7323 17.5148C31.9852 18.014 31.1067 18.2805 30.2082 18.2804C29.0036 18.2792 27.8486 17.8001 26.9969 16.9483C26.1451 16.0964 25.6661 14.9415 25.665 13.7369ZM27.6025 13.7369C27.6026 13.2215 27.7555 12.7177 28.0419 12.2893C28.3283 11.8608 28.7353 11.5269 29.2115 11.3297C29.6876 11.1326 30.2115 11.0811 30.717 11.1817C31.2225 11.2823 31.6867 11.5305 32.0511 11.895C32.4155 12.2594 32.6636 12.7238 32.7641 13.2292C32.8646 13.7347 32.8129 14.2586 32.6157 14.7348C32.4184 15.2109 32.0844 15.6178 31.6559 15.9041C31.2273 16.1904 30.7235 16.3432 30.2082 16.3432C29.5172 16.3425 28.8548 16.0676 28.3662 15.579C27.8777 15.0904 27.603 14.4278 27.6025 13.7369Z" fill="#6A0DAD"/>
</svg>
