<svg width="35" height="48" viewBox="0 0 35 48" fill="none" xmlns="http://www.w3.org/2000/svg">
<path d="M11.5558 18.416L15.3812 21.2285C15.5378 21.3437 15.7331 21.3935 15.9257 21.3675C16.1184 21.3415 16.2934 21.2417 16.4139 21.0892L22.3385 13.5892C22.4613 13.433 22.5171 13.2346 22.4937 13.0374C22.4704 12.8401 22.3697 12.6602 22.2139 12.5371C22.058 12.414 21.8597 12.3577 21.6624 12.3806C21.4651 12.4035 21.285 12.5038 21.1615 12.6594L15.6859 19.5908L12.4442 17.2075C12.2839 17.0901 12.0836 17.041 11.8872 17.0712C11.6908 17.1013 11.5144 17.2081 11.3967 17.3682C11.279 17.5283 11.2296 17.7286 11.2595 17.925C11.2893 18.1215 11.3959 18.2981 11.5558 18.416Z" fill="#6A0DAD"/>
<path d="M1.51125 19.6268C1.49827 19.9848 1.41414 20.3366 1.26375 20.6618C1.035 21.2993 0.77625 22.023 1.03875 22.728C1.30125 23.4443 1.9725 23.8343 2.565 24.183C2.88344 24.3331 3.16993 24.5431 3.40875 24.8018C3.51919 25.1375 3.56127 25.492 3.5325 25.8443C3.54 26.5268 3.5475 27.2955 4.03875 27.873C4.52625 28.4505 5.2875 28.5893 5.9625 28.713C6.31788 28.7467 6.66317 28.8499 6.97875 29.0168C7.19669 29.2936 7.35732 29.611 7.45125 29.9505C7.69125 30.588 7.965 31.3118 8.625 31.6905C9.2775 32.0655 10.0387 31.9418 10.7137 31.8293C11.0642 31.7411 11.4285 31.722 11.7863 31.773C12.0827 31.9575 12.34 32.1983 12.5438 32.4818C12.9938 33.003 13.5 33.5918 14.2575 33.723C14.9888 33.8505 15.66 33.4755 16.2488 33.1455C16.5511 32.9393 16.8915 32.7952 17.25 32.7218C17.6085 32.7952 17.9489 32.9393 18.2512 33.1455C18.756 33.4871 19.3392 33.6949 19.9463 33.7493C20.0456 33.7497 20.1448 33.7409 20.2425 33.723C21 33.5918 21.5063 33.003 21.9563 32.4818C22.16 32.1982 22.4173 31.9574 22.7137 31.773C23.0715 31.722 23.4358 31.7411 23.7863 31.8293C24.4613 31.9418 25.2225 32.0655 25.875 31.6905C26.535 31.3118 26.8088 30.588 27.045 29.9505C27.1424 29.6116 27.3041 29.2946 27.5212 29.0168C27.8368 28.8499 28.1821 28.7467 28.5375 28.713C29.2087 28.5893 29.9738 28.4505 30.4613 27.873C30.9525 27.2955 30.96 26.5267 30.9637 25.8442C30.9378 25.4918 30.9811 25.1376 31.0913 24.8017C31.3301 24.5431 31.6166 24.333 31.935 24.183C32.5275 23.8342 33.1988 23.4442 33.465 22.728C33.7238 22.023 33.465 21.2992 33.2362 20.6617C33.0859 20.3366 33.0017 19.9848 32.9888 19.6267C33.124 19.3099 33.3173 19.0212 33.5588 18.7755C34.0012 18.2468 34.5 17.6468 34.5 16.8743C34.5 16.1018 34.0012 15.5018 33.5588 14.973C33.2949 14.735 33.0972 14.4327 32.985 14.0955C32.9922 13.7447 33.0781 13.4 33.2362 13.0868C33.465 12.4493 33.7238 11.7255 33.4613 11.0205C33.1987 10.3043 32.5275 9.91428 31.935 9.56553C31.6166 9.41548 31.3301 9.20539 31.0913 8.94678C30.9808 8.61103 30.9387 8.25656 30.9675 7.90428C30.96 7.2218 30.9525 6.45303 30.4613 5.87554C29.9738 5.29803 29.2125 5.15929 28.5375 5.03553C28.1821 5.00182 27.8368 4.89862 27.5212 4.73178C27.3033 4.455 27.1427 4.13757 27.0487 3.79803C26.8087 3.16052 26.535 2.43677 25.875 2.05802C25.2225 1.68302 24.4613 1.80677 23.7863 1.91927C23.4358 2.00745 23.0715 2.02656 22.7137 1.97552C22.4173 1.79109 22.16 1.55029 21.9563 1.26677C21.5063 0.745516 21 0.156766 20.2425 0.0255161C19.5113 -0.101984 18.84 0.273016 18.2512 0.603016C17.9489 0.809256 17.6085 0.953301 17.25 1.02677C16.8915 0.953301 16.5511 0.809256 16.2488 0.603016C15.66 0.273016 14.9888 -0.101984 14.2575 0.0255161C13.5 0.156766 12.9938 0.745516 12.5438 1.26677C12.34 1.55029 12.0827 1.79109 11.7863 1.97552C11.4285 2.02656 11.0642 2.00745 10.7137 1.91927C10.0387 1.80677 9.2775 1.68302 8.625 2.05802C7.965 2.43677 7.69125 3.16052 7.455 3.79802C7.35756 4.13691 7.19588 4.45392 6.97875 4.73177C6.66316 4.8986 6.31788 5.0018 5.9625 5.03552C5.29125 5.15927 4.52625 5.29802 4.03875 5.87552C3.5475 6.45302 3.54 7.22177 3.53625 7.90427C3.56216 8.25676 3.51885 8.61091 3.40875 8.94677C3.16992 9.20537 2.88344 9.41547 2.565 9.56552C1.9725 9.91427 1.30123 10.3043 1.035 11.0205C0.77625 11.7255 1.035 12.4493 1.26375 13.0867C1.41414 13.4119 1.49827 13.7637 1.51125 14.1217C1.37598 14.4386 1.18266 14.7273 0.94125 14.973C0.49875 15.5018 0 16.1018 0 16.8743C0 17.6468 0.49875 18.2468 0.94125 18.7755C1.18266 19.0212 1.37598 19.31 1.51125 19.6268ZM17.25 7.49927C19.1042 7.49927 20.9168 8.0491 22.4585 9.07924C24.0002 10.1094 25.2018 11.5736 25.9114 13.2866C26.6209 14.9997 26.8066 16.8847 26.4449 18.7032C26.0831 20.5218 25.1902 22.1923 23.8791 23.5034C22.568 24.8145 20.8975 25.7074 19.079 26.0691C17.2604 26.4309 15.3754 26.2452 13.6623 25.5356C11.9493 24.8261 10.4851 23.6244 9.45497 22.0827C8.42483 20.541 7.875 18.7285 7.875 16.8743C7.875 14.3879 8.86272 12.0033 10.6209 10.2451C12.379 8.48699 14.7636 7.49927 17.25 7.49927Z" fill="#6A0DAD"/>
<path d="M25.1884 47.9985C25.3373 48.0035 25.4844 47.9646 25.6115 47.8867C25.7386 47.8088 25.84 47.6953 25.9032 47.5603L27.9426 43.0858C27.9426 43.0858 32.2963 45.1628 32.302 45.1655C32.436 45.2263 32.5849 45.2468 32.7303 45.2242C32.8757 45.2017 33.0114 45.1372 33.1208 45.0387C33.2301 44.9402 33.3083 44.8119 33.3458 44.6696C33.3833 44.5273 33.3784 44.3771 33.3318 44.2375L28.4472 30.4896C28.4461 30.4927 28.4434 30.494 28.442 30.4969C28.1746 31.2193 27.7579 32.3394 26.6217 32.9914C26.0722 33.2981 25.4513 33.4538 24.8221 33.4427C24.3915 33.4341 23.9624 33.3893 23.5393 33.3087C23.4551 33.2952 23.3558 33.279 23.2625 33.2655C23.2057 33.3298 23.1482 33.3964 23.1035 33.4482C22.5666 34.0697 21.7819 34.9786 20.499 35.2011C20.3864 35.2207 20.2728 35.2337 20.1587 35.2401L24.5138 47.5003C24.5638 47.6411 24.6548 47.7637 24.775 47.8524C24.8951 47.9412 25.0391 47.9921 25.1884 47.9985Z" fill="#6A0DAD"/>
<path d="M11.4137 33.4682C11.361 33.4067 11.298 33.3336 11.2375 33.2655C11.1467 33.2787 11.0519 33.2941 10.975 33.3065C10.5472 33.3882 10.1133 33.4337 9.67785 33.4427C9.04839 33.4538 8.42724 33.2979 7.87756 32.991C6.75534 32.3469 6.33154 31.234 6.05209 30.4915C6.04058 30.5239 1.1757 44.2165 1.16821 44.2375C1.12218 44.3771 1.11773 44.527 1.15542 44.669C1.1931 44.811 1.27128 44.939 1.38044 45.0374C1.48959 45.1357 1.625 45.2002 1.77017 45.223C1.91533 45.2457 2.06398 45.2258 2.198 45.1655L6.55737 43.0858L8.5968 47.5604C8.65879 47.6963 8.75996 47.8106 8.88733 47.8887C9.01471 47.9667 9.16249 48.005 9.31175 47.9986C9.461 47.9921 9.60494 47.9412 9.7251 47.8525C9.84526 47.7637 9.93618 47.6411 9.98621 47.5003L14.3424 35.2394C14.2276 35.2326 14.1133 35.2197 13.9999 35.2007C12.7181 34.9786 11.9334 34.0697 11.4137 33.4682Z" fill="#6A0DAD"/>
</svg>
