<svg width="38" height="36" viewBox="0 0 38 36" fill="none" xmlns="http://www.w3.org/2000/svg">
<path d="M37.1465 30.0519V35.3319H34.9889V31.5982H34.3363V35.3319H27.9995V31.5982H27.3469V35.3319H25.2153V30.0519C25.2153 29.9509 25.2109 29.8497 25.2065 29.7482C25.3543 27.3604 27.2338 25.4645 29.5311 25.4645H30.7645C30.897 25.4806 31.0319 25.4941 31.169 25.4941C31.306 25.4941 31.4409 25.4806 31.5732 25.4645H32.8091C35.1993 25.4645 37.1465 27.5212 37.1465 30.0519Z" fill="#6A0DAD"/>
<path d="M33.7509 22.0708C33.7509 23.449 32.7829 24.5878 31.5278 24.7743H30.8099C29.5549 24.5878 28.5871 23.449 28.5871 22.0708C28.5871 20.566 29.7443 19.3397 31.169 19.3397C32.5936 19.3397 33.7509 20.566 33.7509 22.0708Z" fill="#6A0DAD"/>
<path d="M24.5629 30.0519V35.3319H22.4048V31.5982H21.7524V35.3319H15.4157V31.5982H14.7635V35.3319H12.6078V30.0519C12.6078 27.5212 14.5522 25.4645 16.9449 25.4645H18.1807C18.3134 25.4806 18.4481 25.4941 18.5853 25.4941C18.7222 25.4941 18.8571 25.4806 18.9898 25.4645H20.2232C22.5181 25.4645 24.3996 27.3604 24.5476 29.7482C24.5432 29.8497 24.5387 29.9509 24.5387 30.0519H24.5629Z" fill="#6A0DAD"/>
<path d="M21.1673 22.0708C21.1673 23.449 20.1992 24.5878 18.944 24.7743H18.2241C16.9715 24.5878 16.003 23.449 16.003 22.0708C16.003 20.566 17.1603 19.3397 18.5853 19.3397C20.0078 19.3397 21.1673 20.566 21.1673 22.0708Z" fill="#6A0DAD"/>
<path d="M20.9691 15.0169C21.1782 15.0169 21.3499 15.1983 21.3499 15.4195C21.3499 15.6429 21.1782 15.8222 20.9691 15.8222H16.201C15.9903 15.8222 15.8203 15.6429 15.8203 15.4195C15.8203 15.1983 15.9903 15.0169 16.201 15.0169H20.9691Z" fill="#6A0DAD"/>
<path d="M17.5652 16.5123H19.6053C19.4752 16.9815 19.0684 17.3266 18.5853 17.3266C18.0999 17.3266 17.6957 16.9815 17.5652 16.5123Z" fill="#6A0DAD"/>
<path d="M18.3068 11.8903L17.1843 10.0658V9.70217C17.1843 9.6816 17.2238 9.67898 17.2238 9.70217V9.8034C17.2238 10.1943 17.5235 10.5142 17.8958 10.5142C18.2654 10.5142 18.5657 10.1943 18.5657 9.8034V9.68391C18.5679 9.66083 18.605 9.66314 18.605 9.68391V9.78504C18.605 10.1759 18.9073 10.4958 19.277 10.4958C19.6466 10.4958 19.9469 10.1759 19.9469 9.77591V9.70217C19.9469 9.68161 19.984 9.68161 19.984 9.70217V10.0658L18.8636 11.8903V14.3267H18.3068V11.8903Z" fill="#6A0DAD"/>
<path d="M14.944 5.17681L15.4048 4.68869L14.7111 3.9551L14.2503 4.44248L14.944 5.17681ZM13.5866 8.98871V8.29834H12.6078V8.98871H13.5866ZM14.1694 6.38688L13.2862 5.94009L13.0038 6.56165L13.8889 7.01012L14.1694 6.38688ZM16.4753 3.89971L17.0885 3.66955L16.7622 2.69195L16.1469 2.922L16.4753 3.89971ZM22.9987 6.38247L23.2794 7.0034L24.1645 6.55714L23.884 5.93569L22.9987 6.38247ZM21.7655 4.68429L22.2267 5.17178L22.9206 4.44028L22.4592 3.95048L21.7655 4.68429ZM20.0794 3.66514L20.6951 3.8953L21.0215 2.91728L20.4059 2.68733L20.0794 3.66514ZM23.5817 8.9842H24.5629V8.29393H23.5817V8.9842ZM18.259 3.48806H18.9117V2.45004H18.259V3.48806ZM21.8022 21.7259C21.6392 20.0025 20.2581 18.6494 18.5853 18.6494C16.9104 18.6494 15.5311 20.0025 15.3659 21.7259H9.19478C9.03172 20.0025 7.65031 18.6494 5.97771 18.6494C4.30272 18.6494 2.92369 20.0025 2.75826 21.7259H0V0H37.1465V21.7259H34.3884C34.223 20.0025 32.8416 18.6494 31.169 18.6494C29.4964 18.6494 28.115 20.0025 27.9495 21.7259H21.8022ZM18.5853 3.73889C16.0338 3.73889 13.9585 5.93359 13.9585 8.63225C13.9585 9.9275 14.4326 11.1492 15.2836 12.0583L16.2728 13.2316V14.3267H16.201C15.6313 14.3267 15.1679 14.8165 15.1679 15.4195C15.1679 16.022 15.6313 16.5123 16.201 16.5123H16.8907C17.0341 17.3656 17.7389 18.0169 18.5853 18.0169C19.4316 18.0169 20.136 17.3656 20.2774 16.5123H20.9691C21.5394 16.5123 22.0024 16.022 22.0024 15.4195C22.0024 14.8165 21.5394 14.3267 20.9691 14.3267H20.8973V13.2316L21.874 12.0717C22.7355 11.1492 23.2118 9.9275 23.2118 8.63225C23.2118 5.93359 21.1345 3.73889 18.5853 3.73889Z" fill="#6A0DAD"/>
<path d="M11.9552 30.0519V35.3319H9.79721V31.5982H9.14479V35.3319H2.80844V31.5982H2.15562V35.3319H0V30.0519C0 27.7579 1.59683 25.8531 3.67847 25.5174C3.89369 25.4829 4.11348 25.4645 4.33763 25.4645H5.57304C5.70575 25.4806 5.84044 25.4941 5.97771 25.4941C6.11478 25.4941 6.24947 25.4806 6.38197 25.4645H7.6156C9.4102 25.4645 10.9547 26.6215 11.6136 28.2666C11.833 28.8167 11.9552 29.4192 11.9552 30.0519Z" fill="#6A0DAD"/>
<path d="M8.55942 22.0708C8.55942 22.1999 8.55089 22.3261 8.53581 22.4529C8.37474 23.6536 7.47437 24.6062 6.33655 24.7743H5.61629C4.71611 24.6409 3.96133 24.0148 3.60884 23.1616C3.46959 22.8277 3.39361 22.4575 3.39361 22.0708C3.39361 20.566 4.55305 19.3397 5.97771 19.3397C7.40037 19.3397 8.55942 20.566 8.55942 22.0708Z" fill="#6A0DAD"/>
</svg>
