<svg width="48" height="48" viewBox="0 0 48 48" fill="none" xmlns="http://www.w3.org/2000/svg">
<path d="M46.5938 22.5938H45.0465C44.7127 17.4888 42.5662 12.7353 38.9154 9.08447C35.2646 5.43366 30.5112 3.28725 25.4062 2.9535V1.40625C25.4062 0.629625 24.7766 0 24 0C23.2234 0 22.5938 0.629625 22.5938 1.40625V2.9535C17.4888 3.28725 12.7353 5.43375 9.08447 9.08447C5.43366 12.7352 3.28725 17.4888 2.9535 22.5938H1.40625C0.629625 22.5938 0 23.2234 0 24C0 24.7766 0.629625 25.4062 1.40625 25.4062H2.9535C3.28734 30.5112 5.43375 35.2647 9.08456 38.9155C12.7354 42.5663 17.4888 44.7127 22.5938 45.0465V46.5938C22.5938 47.3704 23.2234 48 24 48C24.7766 48 25.4062 47.3704 25.4062 46.5938V45.0465C30.5112 44.7127 35.2647 42.5662 38.9155 38.9154C42.5663 35.2646 44.7127 30.5112 45.0465 25.4062H46.5938C47.3704 25.4062 48 24.7766 48 24C48 23.2234 47.3704 22.5938 46.5938 22.5938ZM40.7812 25.4062H42.2277C41.5428 34.3679 34.3679 41.5428 25.4062 42.2277V40.7812C25.4062 40.0046 24.7766 39.375 24 39.375C23.2234 39.375 22.5938 40.0046 22.5938 40.7812V42.2277C13.6321 41.5428 6.45722 34.3679 5.77228 25.4062H7.21875C7.99538 25.4062 8.625 24.7766 8.625 24C8.625 23.2234 7.99538 22.5938 7.21875 22.5938H5.77228C6.45722 13.6321 13.6321 6.45722 22.5938 5.77228V7.21875C22.5938 7.99538 23.2234 8.625 24 8.625C24.7766 8.625 25.4062 7.99538 25.4062 7.21875V5.77228C34.3679 6.45722 41.5428 13.6321 42.2277 22.5938H40.7812C40.0046 22.5938 39.375 23.2234 39.375 24C39.375 24.7766 40.0046 25.4062 40.7812 25.4062Z" fill="#6A0DAD"/>
<path d="M37.4197 16.0625L24.2947 13.25C24.1004 13.2083 23.8996 13.2083 23.7053 13.25L10.5803 16.0625C9.09825 16.3801 9.09825 18.4949 10.5803 18.8125L23.7053 21.625C23.8996 21.6667 24.1004 21.6667 24.2947 21.625L37.4197 18.8125C38.9018 18.4949 38.9018 16.3801 37.4197 16.0625Z" fill="#6A0DAD"/>
<path d="M24 24.4688C23.7032 24.4688 23.4056 24.4372 23.1154 24.375L14.1562 22.4552V29.625C14.1562 30.4016 14.7859 31.0312 15.5625 31.0312H32.4375C33.2141 31.0312 33.8438 30.4016 33.8438 29.625V22.4551L24.884 24.375C24.5944 24.4372 24.2968 24.4688 24 24.4688Z" fill="#6A0DAD"/>
</svg>
