<svg width="49" height="49" viewBox="0 0 49 49" fill="none" xmlns="http://www.w3.org/2000/svg">
<path d="M24.4873 30.3676L27.2688 25.7324H21.7059L24.4873 30.3676Z" fill="#6A0DAD"/>
<path d="M23.2422 10.854C22.3862 10.9317 21.5556 11.0936 20.752 11.322V23.2422H23.2422V10.854Z" fill="#6A0DAD"/>
<path d="M28.2227 11.322C27.419 11.0936 26.5884 10.9317 25.7324 10.854V23.2422H28.2227V11.322Z" fill="#6A0DAD"/>
<path d="M46.4779 18.0704C44.3086 17.7619 43.0375 15.5308 44.4594 13.6282C45.4176 12.3474 45.3544 10.7213 44.3054 9.6756L39.3006 4.67081C38.2826 3.64943 36.6501 3.5327 35.5023 4.39824C33.5815 5.84672 31.2384 4.82311 30.9042 2.49348C30.7015 1.07164 29.4645 0 28.0281 0H20.9465C19.5102 0 18.2741 1.07144 18.0705 2.49469C17.7393 4.80933 15.4354 5.88604 13.5236 4.43573C12.3247 3.53756 10.7059 3.63484 9.6756 4.66919L4.66838 9.6756C3.65358 10.6903 3.53675 12.3227 4.39976 13.4753C5.73161 15.2543 5.00995 17.723 2.68641 18.0429C1.10488 18.2698 0 19.4647 0 20.9465V28.0281C0 29.4643 1.07225 30.7012 2.49662 30.9042C4.68642 31.2161 5.9218 33.4643 4.51517 35.3464C3.55782 36.624 3.62024 38.2484 4.66838 39.299L9.67479 44.3054C10.6913 45.3236 12.3247 45.4403 13.4719 44.576C15.3369 43.1858 17.7279 44.0684 18.0704 46.4811C18.2739 47.903 19.5101 48.9746 20.9465 48.9746H28.0281C29.4645 48.9746 30.7015 47.903 30.9058 46.4779C31.2299 44.217 33.5391 43.1113 35.5004 44.5745C36.6531 45.4387 38.2857 45.3219 39.299 44.3054L44.3054 39.299C45.3219 38.2825 45.437 36.6499 44.5762 35.5021C43.1995 33.6665 44.0529 31.2527 46.4811 30.9042C47.903 30.7015 48.9746 29.4645 48.9746 28.0281V20.9465C48.9746 19.5101 47.903 18.2731 46.4779 18.0704ZM24.4873 40.6738C15.5623 40.6738 8.30078 33.4123 8.30078 24.4873C8.30078 15.5623 15.5623 8.30078 24.4873 8.30078C33.4123 8.30078 40.6738 15.5623 40.6738 24.4873C40.6738 33.4123 33.4123 40.6738 24.4873 40.6738Z" fill="#6A0DAD"/>
<path d="M30.7129 12.3031V24.4873C30.7129 24.7127 30.6513 24.9348 30.5362 25.1277C30.5362 25.1277 25.569 33.4064 25.5557 33.4284C25.0788 34.2234 23.8955 34.2207 23.4189 33.4285L18.4384 25.1277C18.3233 24.9348 18.2617 24.7127 18.2617 24.4873V12.3031C13.834 14.5751 10.791 19.1782 10.791 24.4873C10.791 32.0391 16.9355 38.1836 24.4873 38.1836C32.0391 38.1836 38.1836 32.0391 38.1836 24.4873C38.1836 19.1782 35.1406 14.5751 30.7129 12.3031Z" fill="#6A0DAD"/>
</svg>
