<svg width="67" height="67" viewBox="0 0 67 67" fill="none" xmlns="http://www.w3.org/2000/svg">
<path d="M59.4728 13.2953C60.1166 9.00507 59.5329 4.80306 55.0236 4.1875L51.3701 4.18756C46.9934 4.53867 46.2978 9.87043 47.0255 13.3056C48.5255 20.5128 57.9677 20.5006 59.4728 13.2953Z" fill="#6A0DAD"/>
<path d="M13.7346 18.7181C19.5079 18.7601 21.1215 12.0024 19.7962 7.73641C19.5479 6.77278 19.0029 5.91162 18.2382 5.27475C17.4736 4.63788 16.5281 4.25753 15.5355 4.1875L11.882 4.18756C7.50527 4.53867 6.80957 9.87043 7.53735 13.3058C7.77278 14.791 8.52217 16.1463 9.65477 17.1355C10.7874 18.1246 12.2313 18.6847 13.7346 18.7181Z" fill="#6A0DAD"/>
<path d="M22.5391 43.7382C21.4003 43.014 20.5008 41.1338 19.8277 39.9904C19.2208 38.9578 18.9904 37.7469 19.1755 36.5636C19.3606 35.3803 19.9499 34.2977 20.8431 33.4998C19.949 32.7001 19.3594 31.6157 19.1742 30.4306C18.9891 29.2455 19.22 28.0329 19.8276 26.9987C20.3757 25.9323 21.0168 24.9164 21.7434 23.9627C21.4502 22.4971 19.189 21.9318 17.8804 21.9004H9.63103C8.18312 21.9046 6.79618 22.4838 5.7753 23.5106C4.75441 24.5374 4.18319 25.9276 4.18728 27.3755V43.1729C4.18487 44.0279 4.52203 44.849 5.12468 45.4555C5.72732 46.0621 6.54614 46.4046 7.40118 46.4077C7.70195 46.4107 7.98942 46.5321 8.20113 46.7458C8.41283 46.9595 8.53167 47.248 8.53181 47.5488V61.7654C8.53261 62.0428 8.64317 62.3086 8.83932 62.5048C9.03547 62.7009 9.30128 62.8115 9.57868 62.8123H17.9327C18.2101 62.8114 18.4759 62.7009 18.6721 62.5047C18.8682 62.3086 18.9788 62.0428 18.9796 61.7654V47.5488C18.9788 47.3996 19.0074 47.2517 19.0638 47.1136C19.1202 46.9755 19.2033 46.8498 19.3083 46.7438C19.4133 46.6378 19.5382 46.5536 19.6758 46.4959C19.8134 46.4383 19.961 46.4083 20.1102 46.4077C21.3259 46.5037 23.8644 44.9746 22.5391 43.7382Z" fill="#6A0DAD"/>
<path d="M57.3686 21.9004H49.1192C47.8106 21.9423 45.5493 22.4866 45.2562 23.9627C45.9838 24.9158 46.6249 25.9318 47.1721 26.9987C47.7763 28.032 48.0053 29.2422 47.8203 30.4248C47.6353 31.6075 47.0476 32.6899 46.1566 33.4893C47.0505 34.2913 47.6398 35.3775 47.8249 36.5641C48.0099 37.7507 47.7793 38.9648 47.1721 40.0009C46.5815 40.9556 45.7314 42.8 44.8061 43.4555C44.278 43.8447 43.7805 44.3089 44.2827 45.0677C44.581 45.4806 44.9725 45.8171 45.4255 46.05C45.8785 46.2828 46.3801 46.4054 46.8894 46.4077C47.1902 46.4106 47.4776 46.5321 47.6894 46.7457C47.9011 46.9594 48.0199 47.248 48.02 47.5488V61.7654C48.0209 62.0428 48.1314 62.3086 48.3276 62.5047C48.5237 62.7009 48.7895 62.8114 49.0669 62.8123H57.421C57.6984 62.8115 57.9642 62.7009 58.1603 62.5048C58.3565 62.3086 58.467 62.0428 58.4678 61.7654V47.5488C58.467 47.3996 58.4956 47.2517 58.552 47.1136C58.6084 46.9755 58.6915 46.8498 58.7965 46.7438C58.9016 46.6379 59.0264 46.5536 59.164 46.4959C59.3016 46.4383 59.4493 46.4083 59.5985 46.4077C60.453 46.4028 61.2708 46.0598 61.873 45.4536C62.4753 44.8474 62.813 44.0274 62.8124 43.1729V27.3755C62.8165 25.9276 62.2452 24.5374 61.2243 23.5106C60.2034 22.4838 58.8165 21.9046 57.3686 21.9004Z" fill="#6A0DAD"/>
<path d="M45.3609 38.9433C45.7365 38.3017 45.8702 37.5469 45.7377 36.8153C45.6052 36.0838 45.2153 35.4238 44.6385 34.9547L42.9217 33.5309V33.4577L44.6385 32.0339C45.2157 31.5651 45.6059 30.9051 45.7384 30.1734C45.8709 29.4417 45.737 28.6868 45.3609 28.0453L44.1465 25.9411C43.7748 25.2974 43.1869 24.8063 42.4873 24.5552C41.7876 24.3041 41.0216 24.3092 40.3254 24.5697L38.2317 25.3549C38.2157 25.3421 38.1981 25.3315 38.1793 25.3234L37.8129 23.1145C37.6876 22.384 37.3077 21.7214 36.7405 21.2442C36.1733 20.767 35.4554 20.5062 34.7142 20.5078H32.2854C31.5442 20.5062 30.8263 20.767 30.2591 21.2442C29.6919 21.7214 29.3119 22.384 29.1867 23.1145L28.8203 25.3234C28.8015 25.3315 28.7838 25.3421 28.7679 25.3549L26.6636 24.5697C25.9689 24.3102 25.2047 24.3055 24.5069 24.5567C23.8091 24.8078 23.223 25.2984 22.853 25.9411L21.6386 28.0453C21.2625 28.6868 21.1286 29.4417 21.2611 30.1734C21.3936 30.9051 21.7838 31.5651 22.361 32.0339L24.0779 33.4577V33.5309L22.361 34.9547C21.7842 35.4238 21.3943 36.0838 21.2618 36.8153C21.1293 37.5469 21.263 38.3017 21.6386 38.9433L22.853 41.0475C23.223 41.693 23.8108 42.1856 24.511 42.4369C25.2113 42.6882 25.9781 42.6818 26.6741 42.4189L28.7679 41.6338C28.7838 41.6465 28.8015 41.6571 28.8203 41.6652L29.1867 43.8741C29.3096 44.6066 29.6886 45.2717 30.256 45.751C30.8235 46.2303 31.5426 46.4926 32.2854 46.4913H34.7141C35.4569 46.4926 36.176 46.2303 36.7435 45.751C37.311 45.2717 37.6899 44.6066 37.8129 43.8741L38.1897 41.6652C38.2002 41.6547 38.2211 41.6442 38.2316 41.6338L40.3254 42.4189C41.0213 42.6818 41.7882 42.6882 42.4885 42.4369C43.1887 42.1856 43.7765 41.693 44.1465 41.0475L45.3609 38.9433ZM33.4998 38.7339C26.5799 38.5141 26.5799 28.485 33.4998 28.2652C40.4196 28.485 40.4196 38.5141 33.4998 38.7339Z" fill="#6A0DAD"/>
<path d="M36.1712 35.149C36.5982 34.4397 36.7277 33.5904 36.5315 32.7861C36.3353 31.9818 35.8293 31.2875 35.1238 30.8544C34.4182 30.4213 33.5701 30.2845 32.7641 30.4737C31.9581 30.6629 31.2595 31.1629 30.8203 31.8647C30.3933 32.574 30.2638 33.4232 30.46 34.2276C30.6562 35.0319 31.1622 35.7262 31.8677 36.1592C32.5733 36.5923 33.4214 36.7291 34.2274 36.5399C35.0334 36.3507 35.732 35.8508 36.1712 35.149Z" fill="#6A0DAD"/>
</svg>
