<svg width="75" height="75" viewBox="0 0 75 75" fill="none" xmlns="http://www.w3.org/2000/svg">
<path fill-rule="evenodd" clip-rule="evenodd" d="M9.08362 68.1674H32.4986C32.4986 70.9288 34.7367 73.1709 37.5022 73.1709C40.2677 73.1709 42.5015 70.9287 42.5015 68.1674H65.9165V39.1635H62.8022V66.3405L59.8292 64.8332C52.6623 61.2083 45.5909 61.2289 38.4199 64.8374L37.4981 65.3025L36.5762 64.8333C29.4094 61.2084 22.338 61.2291 15.167 64.8376L12.198 66.3324V39.1638H9.08376V68.1677L9.08362 68.1674ZM25.805 47.5761C24.2644 47.5761 23.0146 48.8218 23.0146 50.3624C23.0146 51.903 24.2644 53.1528 25.805 53.1528C27.3455 53.1528 28.5912 51.903 28.5912 50.3624C28.5912 48.8218 27.3455 47.5761 25.805 47.5761ZM49.195 47.5761C50.7356 47.5761 51.9854 48.8218 51.9854 50.3624C51.9854 51.903 50.7356 53.1528 49.195 53.1528C47.6544 53.1528 46.4087 51.903 46.4087 50.3624C46.4087 48.8218 47.6544 47.5761 49.195 47.5761ZM28.5539 31.9509C30.1982 34.9074 32.3865 36.4313 32.1912 38.9725H36.4765L36.4681 32.0921C36.4681 31.5274 36.9249 31.0665 37.502 31.0665C38.0667 31.0665 38.5276 31.5273 38.5276 32.0921V38.9725H42.8086C42.6134 36.4313 44.8059 34.9074 46.4461 31.9509C60.3231 6.94575 14.677 6.94575 28.5539 31.9509ZM34.7657 29.8997C34.201 29.8997 33.74 29.443 33.74 28.8742C33.74 28.3095 34.2009 27.8485 34.7657 27.8485L40.2259 27.8444C40.7947 27.8444 41.2514 28.3011 41.2514 28.8742C41.2514 29.4431 40.7947 29.8997 40.2259 29.8997H34.7657ZM34.7657 26.6858C34.201 26.6858 33.74 26.225 33.74 25.6603C33.74 25.0914 34.2009 24.6348 34.7657 24.6348L40.2259 24.6264C40.7947 24.6264 41.2514 25.0832 41.2514 25.6603C41.2514 26.225 40.7947 26.6858 40.2259 26.6858H34.7657ZM34.6204 45.5582H40.3796C41.2473 45.5582 41.9573 44.8481 41.9573 43.9804V41.0239H33.0464V43.9804C33.0464 44.8481 33.7525 45.5582 34.6204 45.5582ZM35.1851 50.682H39.8149C40.3298 50.682 40.7532 50.2626 40.7532 49.7437V47.5886C40.4002 47.6259 34.5996 47.6259 34.2466 47.5886V49.7437C34.2466 50.2626 34.67 50.682 35.1849 50.682H35.1851ZM26.0168 6.20659C25.7344 5.72085 25.9005 5.09375 26.3905 4.81147C26.8804 4.5292 27.5033 4.69517 27.7898 5.18516L31.0037 10.7535C31.2861 11.2435 31.12 11.8663 30.63 12.1528C30.1443 12.4351 29.5172 12.2691 29.2349 11.7792L26.0169 6.20674L26.0168 6.20659ZM18.634 14.3368C18.144 14.0545 17.9779 13.4316 18.2603 12.9417C18.5426 12.4517 19.1697 12.2855 19.6596 12.568L25.228 15.7861C25.7179 16.0685 25.8841 16.6914 25.6016 17.1812C25.3194 17.6712 24.6923 17.8373 24.2023 17.5549L18.634 14.3368ZM16.3046 25.0747C15.7399 25.0747 15.2789 24.6179 15.2789 24.049C15.2789 23.4843 15.7397 23.0234 16.3046 23.0234H22.7365C23.3053 23.0234 23.7621 23.4843 23.7621 24.049C23.7621 24.6179 23.3053 25.0747 22.7365 25.0747H16.3046ZM58.6955 23.0234C59.2602 23.0234 59.7211 23.4843 59.7211 24.049C59.7211 24.6179 59.2602 25.0747 58.6955 25.0747H52.2636C51.6989 25.0747 51.238 24.6179 51.238 24.049C51.238 23.4843 51.6989 23.0234 52.2636 23.0234H58.6955ZM55.3447 12.568C55.8304 12.2857 56.4575 12.4517 56.7398 12.9417C57.0222 13.4316 56.8561 14.0545 56.3661 14.3368L50.7978 17.5549C50.3078 17.8372 49.685 17.6712 49.3985 17.1812C49.1162 16.6912 49.2823 16.0684 49.7721 15.7861L55.3446 12.568H55.3447ZM47.2145 5.18516C47.4969 4.69517 48.1198 4.52905 48.6096 4.81147C49.0996 5.0939 49.2658 5.72085 48.9833 6.20659L45.7654 11.779C45.4829 12.269 44.8601 12.4351 44.3702 12.1527C43.8802 11.8662 43.7141 11.2433 43.9966 10.7533L47.2145 5.18516ZM36.4766 2.85576C36.4766 2.29106 36.9334 1.83008 37.5022 1.83008C38.0669 1.83008 38.5277 2.29092 38.5277 2.85576V9.28774C38.5277 9.85244 38.0669 10.3133 37.5022 10.3133C36.9334 10.3133 36.4766 9.85244 36.4766 9.28774V2.85562V2.85576ZM38.5279 62.5121C45.9356 59.1113 53.3433 59.2566 60.7552 63.0021V31.1788C57.2673 29.4515 53.771 28.5006 50.2665 28.3345C49.7516 29.9331 49.0457 31.4902 48.2402 32.9437C47.5966 34.1022 46.8408 35.1071 46.0602 36.17C45.508 36.9299 44.7814 37.86 44.8519 38.815L44.9556 40.1521H49.1951C49.7639 40.1521 50.2207 40.6089 50.2207 41.1736V46.6878C53.0111 47.4644 53.966 50.9896 51.8941 53.0617C49.4982 55.4576 45.3833 53.751 45.3833 50.3627C45.3833 48.6354 46.5419 47.1446 48.1696 46.6878V42.1993H44.009V43.9807C44.009 45.0519 43.5439 46.0111 42.8048 46.6755V49.7441C42.8048 51.3926 41.4635 52.7337 39.8152 52.7337H38.5279V62.5124V62.5121ZM24.738 28.3344C21.25 28.5046 17.7537 29.4513 14.2492 31.1787V63.002C21.657 59.2773 29.0647 59.0946 36.4766 62.5079V52.7333H35.1852C33.5368 52.7333 32.1956 51.392 32.1956 49.7437V46.6751C31.4606 46.0108 30.9956 45.0516 30.9956 43.9802V42.1988H26.8308V46.6874C29.6212 47.4639 30.5721 50.9892 28.5001 53.0612C26.1042 55.4571 21.9893 53.7506 21.9893 50.3623C21.9893 48.6349 23.152 47.1441 24.7797 46.6874V41.1731C24.7797 40.6084 25.2365 40.1517 25.8052 40.1517H30.0448L30.1485 38.8146C30.2191 37.8595 29.4967 36.9295 28.9402 36.1695C28.1636 35.1065 27.4038 34.1018 26.7643 32.9432C25.9547 31.4899 25.2529 29.9328 24.738 28.3341V28.3344Z" fill="#6A0DAD"/>
</svg>
