<svg width="52" height="69" viewBox="0 0 52 69" fill="none" xmlns="http://www.w3.org/2000/svg">
<path d="M25.0502 18.3874V25.859C24.4218 25.5305 23.8131 24.818 23.3081 23.7978C22.5874 22.3402 22.1543 20.442 22.0679 18.3874H25.0502Z" fill="#6A0DAD"/>
<path d="M21.904 24.4748C22.0602 24.7913 22.2264 25.0847 22.4015 25.3558C19.6132 24.1472 17.5979 21.5098 17.3111 18.387H20.5036C20.5932 20.6772 21.083 22.8149 21.904 24.4748Z" fill="#6A0DAD"/>
<path d="M22.401 9.87606C22.2264 10.1472 22.0603 10.4411 21.904 10.7571C21.0834 12.4174 20.5937 14.5547 20.5036 16.8445H17.3111C17.5983 13.7221 19.6128 11.0852 22.401 9.87606Z" fill="#6A0DAD"/>
<path d="M25.0502 9.37286V16.844H22.0675C22.1539 14.7899 22.5869 12.8913 23.3076 11.4341C23.8132 10.4139 24.4218 9.70136 25.0502 9.37286Z" fill="#6A0DAD"/>
<path d="M29.5958 16.844H26.6126V9.37241C27.2411 9.70092 27.8506 10.413 28.3552 11.4341C29.0768 12.8917 29.5094 14.7899 29.5958 16.844Z" fill="#6A0DAD"/>
<path d="M34.3521 16.844H31.1597C31.0696 14.5547 30.5799 12.417 29.7592 10.7567C29.6026 10.4402 29.4365 10.1463 29.2618 9.87517C32.0501 11.0847 34.0649 13.7221 34.3521 16.844Z" fill="#6A0DAD"/>
<path d="M31.1597 18.3874H34.3521C34.0649 21.5107 32.0496 24.1476 29.2609 25.3567C29.436 25.0856 29.6021 24.7917 29.7588 24.4752C30.5803 22.8149 31.0701 20.6772 31.1597 18.3874Z" fill="#6A0DAD"/>
<path d="M26.6126 18.3874H29.5958C29.5094 20.442 29.0768 22.3402 28.3556 23.7978C27.8506 24.8188 27.2415 25.5314 26.6131 25.8595L26.6126 18.3874Z" fill="#6A0DAD"/>
<path d="M25.8321 27.6083C31.4113 27.6083 35.9506 23.1256 35.9506 17.6157C35.9506 12.1063 31.4113 7.62364 25.8321 7.62364C20.2529 7.62409 15.7131 12.1067 15.7131 17.6157C15.7131 23.1252 20.2529 27.6078 25.8321 27.6083ZM43.6703 15.8647V19.3676H40.0407C39.6622 19.3676 39.3381 19.6352 39.2719 20.0033C38.9253 21.9205 38.1753 23.7062 37.0427 25.3118C36.8262 25.6181 36.864 26.0337 37.1314 26.2978L39.6995 28.8343L37.1917 31.3107L34.6231 28.7747C34.3558 28.5106 33.9349 28.4733 33.6247 28.6871C31.9987 29.8056 30.1905 30.5461 28.249 30.8884C27.8762 30.9542 27.6052 31.2743 27.6052 31.6477V35.2319H24.058V31.6477C24.058 31.2738 23.7866 30.9538 23.4139 30.8884C21.4728 30.5461 19.6641 29.8056 18.0386 28.6871C17.728 28.4733 17.3071 28.5106 17.0397 28.7747L14.4711 31.3107L11.9633 28.8343L14.5314 26.2978C14.7988 26.0337 14.8366 25.6181 14.6201 25.3118C13.4875 23.7062 12.738 21.9205 12.3914 20.0033C12.3243 19.6352 12.0007 19.3676 11.6216 19.3676H7.99204V15.8647H11.6216C12.0007 15.8647 12.3243 15.5967 12.3914 15.2286C12.738 13.3118 13.4875 11.5257 14.6201 9.92052C14.8366 9.61379 14.7988 9.19816 14.5314 8.93411L11.9633 6.39764L14.4711 3.92118L17.0397 6.4572C17.3071 6.72125 17.728 6.75859 18.0386 6.54477C19.6641 5.42634 21.4728 4.68621 23.4139 4.34392C23.7866 4.27769 24.058 3.95807 24.058 3.58378V0H27.6052V3.58422C27.6052 3.95852 27.8762 4.27813 28.249 4.34436C30.1905 4.68665 31.9987 5.42679 33.6247 6.54522C33.9349 6.75904 34.3558 6.7217 34.6231 6.45765L37.1917 3.92162L39.6995 6.39808L37.1314 8.93455C36.864 9.1986 36.8262 9.61423 37.0427 9.92096C38.1753 11.5261 38.9253 13.3123 39.2719 15.2291C39.3385 15.5971 39.6626 15.8652 40.0407 15.8652L43.6703 15.8647Z" fill="#6A0DAD"/>
<path d="M51.6633 68.2794H42.0115V54.2946C42.0115 53.8687 41.6618 53.5229 41.2301 53.5229C40.7988 53.5229 40.4486 53.8687 40.4486 54.2946V68.2794H11.2147V54.2946C11.2147 53.8687 10.8645 53.5229 10.4332 53.5229C10.0015 53.5229 9.65175 53.8687 9.65175 54.2946V68.2794H0C0.0126043 63.831 0.261089 54.5142 1.97167 48.4877C2.42813 46.8794 2.95166 45.6338 3.66921 44.4483C4.26296 43.4663 5.9758 40.9992 9.0508 39.29C11.7382 37.7968 14.3135 37.5199 16.0705 37.5683L25.1267 44.0904C25.3954 44.2838 25.7587 44.2887 26.032 44.1016L35.582 37.5688C37.3394 37.5181 39.9197 37.7933 42.612 39.2895C45.687 40.9983 47.4003 43.4659 47.9941 44.4478C48.7112 45.6334 49.2343 46.879 49.6907 48.4873C51.4017 54.5137 51.6502 63.8306 51.6633 68.2794Z" fill="#6A0DAD"/>
</svg>
