<svg width="58" height="58" viewBox="0 0 58 58" fill="none" xmlns="http://www.w3.org/2000/svg">
<g clip-path="url(#clip0_2001_231)">
<path d="M34.2646 45.8648H48.8985C49.88 45.8648 50.6831 45.0617 50.6831 44.0801V19.0063C50.6831 18.0248 49.88 17.2217 48.8985 17.2217H45.5077C44.8831 23.4678 40.2431 29.4463 33.4615 31.3201C33.9969 31.8555 34.3539 32.4801 34.3539 33.3725V45.2401C34.3539 45.4186 34.3539 45.6863 34.2646 45.8648ZM39.8862 30.6063H46.2215V32.3909H39.8862V30.6063ZM38.1015 35.0678H46.2215V36.8524H38.1015V35.0678ZM36.3169 39.5294H46.2215V41.314H36.3169V39.5294Z" fill="#6A0DAD"/>
<path d="M9.10151 17.222C8.11997 17.222 7.31689 18.0251 7.31689 19.0067V44.0805C7.31689 45.062 8.11997 45.8651 9.10151 45.8651H23.6461C23.6461 45.5974 23.5569 45.419 23.5569 45.1513V33.2836C23.5569 32.4805 23.9138 31.7667 24.4492 31.2313C18.56 29.6251 13.92 24.7174 12.5815 18.5605C12.4923 18.1143 12.403 17.579 12.3138 17.1328H9.10151V17.222ZM21.683 41.3144H11.8677V39.5297H21.683V41.3144ZM19.8984 36.8528H11.8677V35.0682H19.8984V36.8528ZM18.1138 30.6067V32.3913H11.8677V30.6067H18.1138Z" fill="#6A0DAD"/>
<path d="M55.5908 48.0953H54.6985V15.883C54.6985 14.4553 53.5385 13.2061 52.0216 13.2061H45.5077C45.5969 13.8307 45.5969 14.3661 45.5969 14.9907H52.0216C52.5569 14.9907 52.9139 15.3476 52.9139 15.883V48.1845H36.4954C35.5139 48.1845 34.7108 48.9876 34.7108 49.9691V51.6645H23.2893V49.9691C23.2893 48.9876 22.4862 48.1845 21.5046 48.1845H5.08617V15.883C5.08617 15.4368 5.4431 14.9907 5.97848 14.9907H12.4031C12.4031 14.3661 12.4031 13.8307 12.5816 13.2061H5.97848C4.55079 13.2061 3.30156 14.3661 3.30156 15.883V48.1845H2.40925C1.42771 48.1845 0.624634 48.9876 0.624634 49.9691V54.9661C0.624634 56.483 1.78463 57.643 3.30156 57.643H54.6985C56.1262 57.643 57.3754 56.483 57.3754 54.9661V49.9691C57.3754 48.8984 56.5723 48.0953 55.5908 48.0953Z" fill="#6A0DAD"/>
<path d="M28.1077 30.0709V32.3909H26.3231C25.877 32.3909 25.4308 32.7478 25.4308 33.2832V45.1509C25.4308 47.114 27.037 48.7201 29.0001 48.7201C30.9631 48.7201 32.5693 47.114 32.5693 45.1509V33.2832C32.5693 32.7478 32.2124 32.3909 31.677 32.3909H29.8924V30.0709C37.5662 29.6248 43.8124 23.2001 43.8124 15.2586C43.8124 7.04937 37.1201 0.446289 29.0001 0.446289C20.7908 0.446289 14.1877 7.1386 14.1877 15.2586C14.1877 23.2894 20.5231 29.6248 28.1077 30.0709ZM29.0001 2.2309C36.2277 2.2309 42.0277 8.12014 42.0277 15.2586C42.0277 22.4863 36.1385 28.2863 29.0001 28.2863C21.8616 28.2863 15.9724 22.4863 15.9724 15.2586C15.9724 8.12014 21.7724 2.2309 29.0001 2.2309Z" fill="#6A0DAD"/>
<path d="M23.9138 22.5754C25.8769 22.5754 27.4831 20.9693 27.4831 19.0062C27.4831 17.9354 27.0369 17.0431 26.3231 16.4185L28.1077 13.0277C28.6431 13.2062 29.2677 13.2062 29.8031 13.0277L31.5877 16.4185C30.8738 17.0431 30.4277 18.0247 30.4277 19.0062C30.4277 20.9693 32.0338 22.5754 33.9969 22.5754C35.96 22.5754 37.5661 20.9693 37.5661 19.0062C37.5661 17.0431 35.96 15.437 33.9969 15.437C33.7292 15.437 33.4615 15.5262 33.1046 15.5262L31.32 12.1354C32.0338 11.5108 32.48 10.5293 32.48 9.54775C32.48 7.58467 30.8738 5.97852 28.9108 5.97852C26.9477 5.97852 25.3415 7.58467 25.3415 9.54775C25.3415 10.6185 25.7877 11.5108 26.5015 12.1354L24.7169 15.5262C24.4492 15.437 24.1815 15.437 23.8246 15.437C21.8615 15.437 20.2554 17.0431 20.2554 19.0062C20.3446 20.9693 21.9508 22.5754 23.9138 22.5754Z" fill="#6A0DAD"/>
</g>
<defs>
<clipPath id="clip0_2001_231">
<rect width="58" height="58" fill="white"/>
</clipPath>
</defs>
</svg>
