<svg width="51" height="51" viewBox="0 0 51 51" fill="none" xmlns="http://www.w3.org/2000/svg">
<path fill-rule="evenodd" clip-rule="evenodd" d="M38.9241 0H8.97001V7.17704C8.97001 8.1655 8.1655 8.97001 7.17704 8.97001H0V49.5703C0 50.1512 0.473766 50.625 1.05469 50.625H38.9242C39.5051 50.625 39.9789 50.1512 39.9789 49.5703V32.2459L37.2639 34.9609L31.9308 36.3148C30.7708 36.6093 29.7137 35.5521 30.0082 34.3922L31.3621 29.0592L39.9789 20.4424V1.05469C39.9788 0.473766 39.505 0 38.9241 0ZM31.4393 34.7554L32.4818 30.6486L35.6743 33.841L31.5674 34.8836C31.4901 34.9032 31.4197 34.8326 31.4393 34.7554ZM33.2152 29.2939L43.9846 18.5245L47.7983 22.3383L37.0289 33.1077L33.2152 29.2939ZM45.0286 17.4805L48.8424 21.2942L49.8384 20.2981C50.8872 19.2493 50.8872 17.5331 49.8384 16.4843C48.7896 15.4356 47.0734 15.4356 46.0247 16.4843L45.0286 17.4805ZM19.9894 25.1112C20.5986 25.1112 21.0924 25.605 21.0924 26.2142C21.0924 26.5394 20.9516 26.8317 20.7278 27.0335V28.6254C20.7278 29.0331 20.3972 29.3637 19.9895 29.3637C19.5817 29.3637 19.2512 29.0331 19.2512 28.6254V27.0335C19.0273 26.8317 18.8866 26.5394 18.8866 26.2142C18.8864 25.605 19.3802 25.1112 19.9894 25.1112ZM16.4195 22.9136V20.4644C16.4195 18.4995 18.0245 16.8945 19.9894 16.8945C21.9544 16.8945 23.5594 18.4995 23.5594 20.4644V22.9136H23.9293C24.2197 22.9136 24.4566 23.1505 24.4566 23.441V26.9155C24.4566 29.3723 22.4464 31.3825 19.9896 31.3825C17.5327 31.3825 15.5226 29.3724 15.5226 26.9155V23.441C15.5226 23.1505 15.7595 22.9136 16.0499 22.9136H16.4195ZM22.0828 22.9136H17.896V20.4644C17.896 19.3146 18.8396 18.3711 19.9894 18.3711C21.1393 18.3711 22.0828 19.3146 22.0828 20.4644V22.9136ZM9.63784 15.5441C12.1474 15.3384 14.5056 14.2868 16.539 12.8357C16.6639 12.7468 16.8122 12.6971 16.9658 12.6972H23.0131C23.1925 12.6972 23.3569 12.7612 23.4848 12.8676C25.5153 14.3075 27.867 15.3475 30.368 15.5464C30.7515 15.5765 31.049 15.8969 31.0486 16.2818V25.2994C31.0486 31.039 25.4526 36.4892 20.1798 37.9021C20.0443 37.9383 19.9076 37.9344 19.7824 37.8976C14.5156 36.4769 8.93014 31.0353 8.93014 25.2995V16.2819C8.93014 15.8842 9.24434 15.5602 9.63784 15.5441ZM10.4068 16.9444C12.8646 16.615 15.1704 15.5822 17.1962 14.1737H22.7828C24.8085 15.5822 27.1144 16.615 29.5721 16.9444V25.2992C29.5721 30.3191 24.5477 35.1002 19.9894 36.424C15.431 35.1002 10.4068 30.3191 10.4068 25.2992V16.9444ZM7.49345 0.738281V7.17704C7.49345 7.35033 7.35043 7.49345 7.17704 7.49345H0.738281L7.49345 0.738281Z" fill="#6A0DAD"/>
</svg>
