<svg width="51" height="54" viewBox="0 0 51 54" fill="none" xmlns="http://www.w3.org/2000/svg">
<path d="M18.8909 34.9321C18.8946 36.0765 19.2086 37.1986 19.7994 38.1788C20.3902 39.1589 21.2357 39.9606 22.2459 40.4983C23.1495 40.9798 24.1577 41.2316 25.1816 41.2316C26.2054 41.2316 27.2136 40.9798 28.1172 40.4983C29.1027 39.9783 29.9324 39.2059 30.5214 38.26C31.1104 37.3142 31.4377 36.2288 31.4696 35.115C31.5015 34.0012 31.237 32.8988 30.7032 31.9208C30.1693 30.9427 29.3852 30.124 28.4311 29.5484C27.4771 28.9728 26.3872 28.6609 25.273 28.6447C24.1589 28.6285 23.0604 28.9086 22.09 29.4562C21.1195 30.0038 20.312 30.7994 19.7499 31.7615C19.1878 32.7236 18.8914 33.8178 18.8909 34.9321Z" fill="#6A0DAD"/>
<path d="M43.5769 39.5261C44.5785 38.9535 45.3627 38.0658 45.8076 37.0013C46.2525 35.9367 46.3331 34.755 46.0368 33.6399C45.7405 32.5248 45.084 31.5389 44.1694 30.8356C43.2548 30.1323 42.1334 29.7509 40.9796 29.7509C39.8258 29.7509 38.7044 30.1323 37.7898 30.8356C36.8752 31.5389 36.2187 32.5248 35.9224 33.6399C35.6261 34.755 35.7067 35.9367 36.1516 37.0013C36.5965 38.0658 37.3807 38.9535 38.3823 39.5261C37.2777 39.8096 36.2386 40.3048 35.3228 40.9844C36.3405 41.8655 37.1579 42.9542 37.7202 44.1772C38.2824 45.4003 38.5764 46.7296 38.5825 48.0757V49.9819H49.41C49.6628 49.9819 49.9052 49.8815 50.084 49.7028C50.2627 49.524 50.3631 49.2816 50.3631 49.0288V48.2472C50.3713 46.2438 49.7071 44.2955 48.4767 42.7143C47.2463 41.1331 45.521 40.0105 43.5769 39.5261Z" fill="#6A0DAD"/>
<path d="M30.9575 40.7366C29.426 42.2656 27.3504 43.1244 25.1863 43.1244C23.0223 43.1244 20.9466 42.2656 19.4152 40.7366C17.7044 41.1623 16.1968 42.174 15.1547 43.596C13.2484 45.7786 13.725 49.696 13.6964 52.4029C13.6964 52.6556 13.7968 52.8981 13.9756 53.0768C14.1543 53.2556 14.3967 53.356 14.6495 53.356H35.7327C35.9854 53.356 36.2279 53.2556 36.4066 53.0768C36.5854 52.8981 36.6858 52.6556 36.6858 52.4029V48.0471C36.6693 46.3678 36.0989 44.741 35.0631 43.4191C34.0273 42.0972 32.5841 41.1543 30.9575 40.7366Z" fill="#6A0DAD"/>
<path d="M15.0498 40.9844C14.1287 40.3164 13.0863 39.834 11.9808 39.5643C12.9796 38.9918 13.7612 38.1054 14.2043 37.0429C14.6474 35.9804 14.727 34.8013 14.4308 33.6888C14.1346 32.5764 13.4792 31.5929 12.5664 30.8914C11.6537 30.1899 10.5347 29.8096 9.38352 29.8096C8.23232 29.8096 7.11336 30.1899 6.20061 30.8914C5.28785 31.5929 4.63243 32.5764 4.33624 33.6888C4.04004 34.8013 4.11966 35.9804 4.56272 37.0429C5.00579 38.1054 5.78747 38.9918 6.78625 39.5643C4.84853 40.047 3.12792 41.164 1.89821 42.7374C0.66849 44.3108 0.000316298 46.2503 0 48.2472V49.0288C0 49.2816 0.100418 49.524 0.279164 49.7028C0.45791 49.8815 0.700341 49.9819 0.953125 49.9819H11.7616C11.7616 47.4371 11.9236 44.5301 13.6678 42.4618C14.0807 41.9267 14.5434 41.432 15.0498 40.9844Z" fill="#6A0DAD"/>
<path d="M19.7106 7.18661V21.4835C19.7106 22.2065 19.9978 22.8998 20.509 23.411C21.0202 23.9222 21.7136 24.2094 22.4366 24.2094H35.1417L39.6119 28.2983C39.7482 28.4239 39.9182 28.507 40.101 28.5375C40.2838 28.568 40.4716 28.5445 40.6413 28.4699C40.8085 28.3947 40.9505 28.2729 41.0502 28.1191C41.15 27.9652 41.2032 27.7859 41.2036 27.6026V24.1618H42.0423C42.7645 24.1593 43.4564 23.8713 43.9671 23.3606C44.4778 22.8499 44.7658 22.158 44.7683 21.4358V7.18661C44.7683 6.46277 44.4814 5.76843 43.9705 5.25571C43.4595 4.74298 42.7662 4.45367 42.0423 4.45115H22.4366C22.0778 4.45114 21.7225 4.52197 21.3912 4.65955C21.0598 4.79714 20.7589 4.99878 20.5057 5.25292C20.2524 5.50706 20.0518 5.80869 19.9154 6.14052C19.779 6.47234 19.7094 6.82784 19.7106 7.18661ZM26.1919 8.79739C26.6301 8.35357 27.1527 8.00183 27.7289 7.76285C28.305 7.52388 28.9231 7.40249 29.5469 7.40583C30.5058 7.40552 31.4426 7.69451 32.2347 8.23505C33.0268 7.69451 33.9635 7.40552 34.9225 7.40583C36.184 7.4061 37.3939 7.90652 38.287 8.79739C39.1602 9.68823 39.6493 10.8859 39.6493 12.1333C39.6493 13.3807 39.1602 14.5784 38.287 15.4693L32.9114 20.8449C32.8228 20.9342 32.7174 21.0051 32.6012 21.0535C32.4851 21.1019 32.3605 21.1268 32.2347 21.1268C32.1089 21.1268 31.9843 21.1019 31.8681 21.0535C31.752 21.0051 31.6466 20.9342 31.558 20.8449L26.1919 15.4693C25.3187 14.5784 24.8296 13.3807 24.8296 12.1333C24.8296 10.8859 25.3187 9.68823 26.1919 8.79739Z" fill="#6A0DAD"/>
<path d="M9.07375 19.7202H9.93156V25.0005C9.93413 25.1982 9.99808 25.3901 10.1146 25.5498C10.231 25.7095 10.3943 25.829 10.5817 25.8918C10.7691 25.9547 10.9714 25.9577 11.1606 25.9004C11.3498 25.8432 11.5165 25.7286 11.6377 25.5724L16.1078 19.7202H17.833V7.18661C17.833 5.9572 18.3207 4.77801 19.1891 3.90779C20.0576 3.03757 21.2357 2.54742 22.4652 2.5449H31.4245C31.3738 1.85046 31.061 1.20127 30.5496 0.728767C30.0382 0.256269 29.3663 -0.00421851 28.67 5.16822e-05H9.07375C8.34991 4.72882e-05 7.65557 0.286939 7.14284 0.797879C6.63012 1.30882 6.3408 2.00215 6.33828 2.72599V17.0229C6.35075 17.7409 6.64414 18.4255 7.15553 18.9298C7.66692 19.4341 8.35556 19.7178 9.07375 19.7202ZM11.0848 5.7188H14.9545C15.2073 5.7188 15.4497 5.81922 15.6285 5.99797C15.8072 6.17671 15.9077 6.41914 15.9077 6.67193C15.9077 6.92471 15.8072 7.16714 15.6285 7.34589C15.4497 7.52463 15.2073 7.62505 14.9545 7.62505H11.0848C10.8321 7.62505 10.5896 7.52463 10.4109 7.34589C10.2321 7.16714 10.1317 6.92471 10.1317 6.67193C10.1317 6.41914 10.2321 6.17671 10.4109 5.99797C10.5896 5.81922 10.8321 5.7188 11.0848 5.7188ZM11.0848 9.5313H14.9545C15.2073 9.5313 15.4497 9.63172 15.6285 9.81047C15.8072 9.98921 15.9077 10.2316 15.9077 10.4844C15.9077 10.7372 15.8072 10.9796 15.6285 11.1584C15.4497 11.3371 15.2073 11.4376 14.9545 11.4376H11.0848C10.8321 11.4376 10.5896 11.3371 10.4109 11.1584C10.2321 10.9796 10.1317 10.7372 10.1317 10.4844C10.1317 10.2316 10.2321 9.98921 10.4109 9.81047C10.5896 9.63172 10.8321 9.5313 11.0848 9.5313ZM11.0848 13.3438H14.9545C15.2073 13.3438 15.4497 13.4442 15.6285 13.623C15.8072 13.8017 15.9077 14.0441 15.9077 14.2969C15.9077 14.5497 15.8072 14.7921 15.6285 14.9709C15.4497 15.1496 15.2073 15.2501 14.9545 15.2501H11.0848C10.8321 15.2501 10.5896 15.1496 10.4109 14.9709C10.2321 14.7921 10.1317 14.5497 10.1317 14.2969C10.1317 14.0441 10.2321 13.8017 10.4109 13.623C10.5896 13.4442 10.8321 13.3438 11.0848 13.3438Z" fill="#6A0DAD"/>
<path d="M32.2347 18.8719L36.9336 14.1635C37.4633 13.6282 37.7603 12.9055 37.7603 12.1524C37.7603 11.3993 37.4633 10.6766 36.9336 10.1413C36.392 9.62002 35.6695 9.32882 34.9177 9.32882C34.166 9.32882 33.4435 9.62002 32.9019 10.1413C32.7233 10.3188 32.4817 10.4185 32.2299 10.4185C31.9781 10.4185 31.7365 10.3188 31.558 10.1413C31.0168 9.62284 30.2963 9.3334 29.5469 9.3334C28.7974 9.3334 28.0769 9.62284 27.5358 10.1413C27.0061 10.6766 26.709 11.3993 26.709 12.1524C26.709 12.9055 27.0061 13.6282 27.5358 14.1635L32.2347 18.8719Z" fill="#6A0DAD"/>
</svg>
