<svg width="39" height="49" viewBox="0 0 39 49" fill="none" xmlns="http://www.w3.org/2000/svg">
<path d="M15.9975 45.5608C15.3837 45.0087 15.0088 44.2395 14.9521 43.4159C14.8954 42.5923 15.1614 41.779 15.6938 41.148L16.3013 40.4224L15.3563 40.338C14.5617 40.2685 13.8222 39.9028 13.2846 39.3136C12.747 38.7244 12.4504 37.9547 12.4538 37.1571V35.478C12.4493 34.6809 12.7457 33.9115 13.2838 33.3234C13.8218 32.7353 14.5619 32.3718 15.3563 32.3055L16.3013 32.2211L15.6938 31.4955C15.177 30.8862 14.9098 30.104 14.9458 29.3058C14.9818 28.5077 15.3183 27.7527 15.8878 27.1924L17.0691 26.0027C17.6316 25.4363 18.3868 25.1027 19.1843 25.0683C19.9818 25.0339 20.763 25.3012 21.3722 25.8171L22.0979 26.4161L22.1822 25.4796C22.2507 24.6853 22.6146 23.9456 23.202 23.4067C23.7894 22.8677 24.5575 22.5687 25.3547 22.5686H27.0422V11.0767C27.0407 10.2201 26.6998 9.39906 26.0941 8.79335C25.4884 8.18764 24.6673 7.84669 23.8107 7.84518H3.24C2.38077 7.84541 1.55679 8.18683 0.949221 8.7944C0.341652 9.40197 0.000223671 10.2259 0 11.0852V44.0083C0.000223671 44.8675 0.341652 45.6915 0.949221 46.2991C1.55679 46.9067 2.38077 47.2481 3.24 47.2483H17.9297C17.309 47.0279 16.4856 45.9973 15.9975 45.5608ZM3.50156 29.4958C3.50118 29.3849 3.52274 29.275 3.565 29.1725C3.60727 29.0699 3.6694 28.9768 3.74783 28.8983C3.82626 28.8199 3.91943 28.7578 4.02197 28.7155C4.12451 28.6732 4.2344 28.6517 4.34531 28.6521H10.9941C11.2178 28.6521 11.4324 28.741 11.5907 28.8992C11.7489 29.0574 11.8378 29.272 11.8378 29.4958C11.8378 29.7196 11.7489 29.9342 11.5907 30.0924C11.4324 30.2507 11.2178 30.3396 10.9941 30.3396H4.34531C4.12174 30.3389 3.9075 30.2498 3.74941 30.0917C3.59131 29.9336 3.50221 29.7194 3.50156 29.4958ZM13.5169 24.7455H4.34531C4.1237 24.7422 3.91228 24.6519 3.75673 24.494C3.60118 24.3361 3.51399 24.1234 3.51399 23.9017C3.51399 23.6801 3.60118 23.4674 3.75673 23.3095C3.91228 23.1516 4.1237 23.0613 4.34531 23.058H13.5169C13.738 23.062 13.9488 23.1526 14.1038 23.3104C14.2588 23.4682 14.3457 23.6805 14.3457 23.9017C14.3457 24.1229 14.2588 24.3353 14.1038 24.4931C13.9488 24.6509 13.738 24.7415 13.5169 24.7455ZM19.7606 19.1514H4.34531C4.12154 19.1514 3.90693 19.0625 3.74869 18.9043C3.59046 18.7461 3.50156 18.5315 3.50156 18.3077C3.50156 18.0839 3.59046 17.8693 3.74869 17.7111C3.90693 17.5528 4.12154 17.4639 4.34531 17.4639H19.7606C19.9822 17.4672 20.1937 17.5576 20.3492 17.7154C20.5048 17.8733 20.592 18.0861 20.592 18.3077C20.592 18.5293 20.5048 18.7421 20.3492 18.8999C20.1937 19.0578 19.9822 19.1481 19.7606 19.1514ZM23.0597 13.5574H4.34531C4.1237 13.5541 3.91228 13.4637 3.75673 13.3059C3.60118 13.148 3.51399 12.9353 3.51399 12.7136C3.51399 12.492 3.60118 12.2793 3.75673 12.1214C3.91228 11.9635 4.1237 11.8732 4.34531 11.8699H23.0597C23.2813 11.8732 23.4927 11.9635 23.6483 12.1214C23.8038 12.2793 23.891 12.492 23.891 12.7136C23.891 12.9353 23.8038 13.148 23.6483 13.3059C23.4927 13.4637 23.2813 13.5541 23.0597 13.5574Z" fill="#6A0DAD"/>
<path d="M36.8887 33.9846L34.8216 33.7989C34.6362 33.1788 34.3874 32.5793 34.0791 32.0102L35.4122 30.4155C35.6539 30.1264 35.7785 29.7572 35.7613 29.3807C35.7442 29.0043 35.5865 28.6479 35.3194 28.3821L34.1381 27.2008C33.8722 26.9338 33.5159 26.7761 33.1395 26.759C32.763 26.7418 32.3938 26.8663 32.1047 27.108L30.51 28.4411C29.9408 28.1328 29.3414 27.884 28.7212 27.6986L28.5356 25.623C28.5031 25.2495 28.3316 24.9019 28.055 24.6488C27.7785 24.3957 27.4171 24.2555 27.0422 24.2561H25.3631C24.986 24.2557 24.6225 24.3967 24.3444 24.6514C24.0663 24.906 23.8939 25.2558 23.8613 25.6314L23.6756 27.6986C23.0576 27.8825 22.4609 28.1314 21.8953 28.4411L20.2922 27.108C20.0047 26.8663 19.6368 26.7416 19.2616 26.7588C18.8864 26.776 18.5314 26.9338 18.2672 27.2008L17.0775 28.3821C16.8104 28.6479 16.6527 29.0043 16.6355 29.3807C16.6183 29.7572 16.7429 30.1264 16.9847 30.4155L18.3263 32.0102C18.0144 32.5777 17.7655 33.1775 17.5838 33.7989L15.5081 33.9846C15.1341 34.0157 14.7856 34.1867 14.5322 34.4636C14.2788 34.7404 14.1392 35.1027 14.1413 35.478V37.1571C14.1389 37.5333 14.2782 37.8966 14.5315 38.1749C14.7847 38.4531 15.1333 38.6259 15.5081 38.6589L17.5838 38.8446C17.764 39.4639 18.013 40.061 18.3263 40.6249L16.9847 42.228C16.743 42.5155 16.6183 42.8834 16.6355 43.2586C16.6527 43.6338 16.8105 43.9888 17.0775 44.253L18.2672 45.4427C18.5323 45.7079 18.8871 45.8645 19.2617 45.8816C19.6363 45.8988 20.0039 45.7754 20.2922 45.5355L21.8953 44.1939C22.4592 44.5071 23.0563 44.7562 23.6756 44.9364L23.8613 47.0121C23.8943 47.3868 24.0671 47.7355 24.3453 47.9887C24.6236 48.242 24.9869 48.3813 25.3631 48.3789H27.0422C27.4175 48.381 27.7798 48.2414 28.0566 47.988C28.3335 47.7346 28.5045 47.3861 28.5356 47.0121L28.7212 44.9364C29.3427 44.7547 29.9425 44.5057 30.51 44.1939L32.1047 45.5355C32.3946 45.7753 32.7634 45.8987 33.1393 45.8815C33.5152 45.8643 33.8712 45.7079 34.1381 45.4427L35.3194 44.253C35.5863 43.9888 35.7441 43.6338 35.7613 43.2586C35.7785 42.8834 35.6539 42.5155 35.4122 42.228L34.0791 40.6249C34.3888 40.0593 34.6377 39.4626 34.8216 38.8446L36.8887 38.6589C37.2644 38.6263 37.6142 38.4539 37.8688 38.1758C38.1235 37.8977 38.2645 37.5341 38.2641 37.1571V35.478C38.2642 35.1018 38.1229 34.7394 37.8681 34.4627C37.6133 34.186 37.2636 34.0153 36.8887 33.9846ZM31.7925 36.3217C31.7906 37.8048 31.2006 39.2266 30.1519 40.2752C29.1033 41.3239 27.6815 41.9139 26.1984 41.9158C18.795 41.6465 18.7977 30.9904 26.1985 30.7277C27.682 30.7282 29.1046 31.3177 30.1535 32.3667C31.2025 33.4157 31.792 34.8383 31.7925 36.3217Z" fill="#6A0DAD"/>
<path d="M23.8106 6.15768C25.1144 6.16049 26.3639 6.67965 27.2858 7.60155C28.2077 8.52344 28.7269 9.77299 28.7297 11.0767V23.0411C29.1734 23.3205 29.5422 23.7041 29.804 24.1585C30.0657 24.6128 30.2125 25.1243 30.2316 25.6483L30.2991 26.4161C30.782 25.9336 31.3479 25.542 31.9697 25.2602L34.3153 6.13237C34.4167 5.28045 34.1775 4.42297 33.6497 3.74662C33.1218 3.07026 32.3482 2.6298 31.4972 2.52112L11.0784 0.0236208C10.2271 -0.079772 9.3695 0.158929 8.694 0.687309C8.0185 1.21569 7.5803 1.99055 7.47563 2.84175L7.07063 6.15768C7.4285 6.17376 22.9521 6.14608 23.8106 6.15768Z" fill="#6A0DAD"/>
<path d="M26.1984 32.4152C25.1686 32.4248 24.1843 32.8406 23.4595 33.5722C22.7347 34.3038 22.328 35.2919 22.3281 36.3218C22.3281 37.3516 22.7347 38.3398 23.4595 39.0714C24.1844 39.803 25.1687 40.2187 26.1985 40.2283C27.2283 40.2187 28.2127 39.8029 28.9375 39.0713C29.6623 38.3397 30.0689 37.3515 30.0689 36.3217C30.0689 35.2919 29.6622 34.3037 28.9374 33.5721C28.2126 32.8405 27.2282 32.4247 26.1984 32.4152Z" fill="#6A0DAD"/>
</svg>
