<svg width="58" height="58" viewBox="0 0 58 58" fill="none" xmlns="http://www.w3.org/2000/svg">
<path d="M54.241 46.8224C52.4069 44.9884 49.5711 44.8086 47.5252 46.2571C47.5056 46.2331 47.4972 46.2036 47.4748 46.1812L40.2559 38.9624C42.4227 36.5153 43.7972 33.3634 44.0009 29.8902H48.3576C48.4007 29.8902 48.4375 29.8715 48.479 29.8657C48.8738 31.4796 50.3201 32.6902 52.0626 32.6902C54.0973 32.6902 55.7622 31.0254 55.7622 28.9906C55.7622 26.9436 54.0973 25.2911 52.0626 25.2911C50.321 25.2911 48.8755 26.4917 48.4798 28.1092C48.4381 28.1033 48.401 28.0845 48.3576 28.0845H43.9996C43.79 24.6128 42.4101 21.4636 40.2393 19.0201L47.4524 11.8058C47.4748 11.7834 47.4833 11.754 47.5029 11.7299C49.5424 13.1745 52.3901 13.0055 54.2253 11.1704C56.2623 9.13332 56.2624 5.79992 54.2253 3.76288C52.1759 1.7135 48.8549 1.72584 46.8178 3.76288C44.9839 5.59684 44.8039 8.43239 46.2522 10.4784C46.2279 10.4981 46.1983 10.5066 46.1758 10.5292L38.9619 17.7441C36.5166 15.5778 33.3662 14.2023 29.8906 13.9981V9.64102C29.8906 9.59796 29.8719 9.56108 29.8661 9.51964C31.4802 9.12487 32.6909 7.67855 32.6909 5.93592C32.6909 3.90123 31.0262 2.23633 28.9914 2.23633C26.9443 2.23633 25.2918 3.90123 25.2918 5.93592C25.2918 7.67745 26.4922 9.12281 28.1096 9.51869C28.1037 9.56042 28.0849 9.5976 28.0849 9.64102V13.9993C24.613 14.2087 21.4657 15.5906 19.0242 17.763L11.7927 10.5321C11.7735 10.5129 11.7482 10.5061 11.7278 10.489C13.1706 8.44965 13.0011 5.60323 11.1666 3.76869C9.12954 1.73172 5.79614 1.73157 3.7591 3.76869C1.70971 5.81807 1.72206 9.13912 3.7591 11.1762C5.59247 13.0095 8.42677 13.1901 10.4726 11.7435C10.4898 11.764 10.4967 11.7894 10.516 11.8088L17.7492 19.0414C15.5856 21.4873 14.2125 24.6369 14.0083 28.1074H9.64142C9.59844 28.1074 9.56163 28.1261 9.52027 28.1319C9.12535 26.518 7.67918 25.3076 5.93669 25.3076C3.902 25.3076 2.2371 26.9724 2.2371 29.0072C2.2371 31.0542 3.902 32.7067 5.93669 32.7067C7.67837 32.7067 9.12395 31.5061 9.5196 29.8885C9.56119 29.8944 9.59822 29.9131 9.64142 29.9131H14.0093C14.218 33.3833 15.596 36.5315 17.7634 38.975L10.5407 46.1971C10.5196 46.2182 10.5119 46.246 10.4933 46.2684C8.45402 44.8249 5.60716 44.9943 3.7724 46.829C1.73536 48.8661 1.73528 52.1995 3.7724 54.2365C5.82178 56.2859 9.14284 56.2736 11.1799 54.2365C13.0137 52.4027 13.1936 49.5673 11.7458 47.5214C11.7684 47.5028 11.7962 47.4949 11.8174 47.4738L19.0399 40.2519C21.4845 42.421 24.6348 43.7986 28.1084 44.0027V48.3572C28.1084 48.4001 28.1271 48.4368 28.1329 48.4782C26.5189 48.8731 25.3084 50.3193 25.3084 52.0619C25.3084 54.0966 26.9731 55.7614 29.008 55.7614C31.055 55.7614 32.7075 54.0966 32.7075 52.0619C32.7075 50.3203 31.507 48.8748 29.8895 48.479C29.8954 48.4374 29.9141 48.4004 29.9141 48.3572V44.0014C33.3891 43.792 36.5379 42.4109 38.9802 40.24L46.1981 47.4579C46.2204 47.4802 46.2497 47.4886 46.2736 47.5081C44.8294 49.5475 44.9986 52.3949 46.8336 54.2299C48.8706 56.2669 52.2039 56.267 54.241 54.2299C56.2904 52.1805 56.278 48.8595 54.241 46.8224ZM35.6815 33.8508C35.6815 34.0851 35.5299 34.3194 35.2957 34.4021C30.7754 36.1247 26.5307 36.1386 22.6719 34.4571C22.4515 34.3607 22.2999 34.1402 22.2999 33.9059V29.1376L28.2258 31.5493C28.7039 31.7618 29.241 31.7776 29.7832 31.5493L35.6815 29.1513V33.8508ZM28.9976 29.6475C28.8811 29.6 18.829 25.4949 19.4471 25.7473L29.0389 22.302L38.5619 25.7336C38.4455 25.7812 28.3796 29.9004 28.9976 29.6475Z" fill="#6A0DAD"/>
</svg>
