<svg width="69" height="69" viewBox="0 0 69 69" fill="none" xmlns="http://www.w3.org/2000/svg">
<path fill-rule="evenodd" clip-rule="evenodd" d="M29.9645 63.4985V64.0932C29.9645 65.6061 31.2023 66.8438 32.715 66.8438H36.2848C37.7976 66.8438 39.0355 65.6061 39.0355 64.0932V63.4985H29.9645ZM34.5 13.6744C26.5351 13.6744 20.0801 20.1297 20.0801 28.0945C20.0801 31.9004 21.5541 35.3614 23.9623 37.9383C25.0167 33.4286 28.89 30.0034 33.6232 29.6239L31.5345 36.1912L34.5 39.5396L37.4655 36.1912L35.3768 29.6239C40.11 30.0034 43.9833 33.4286 45.0377 37.9383C47.4458 35.3614 48.9199 31.9002 48.9199 28.0945C48.9199 20.1295 42.4649 13.6744 34.5 13.6744ZM34.5001 28.2412C31.478 28.2412 29.0281 25.7913 29.0281 22.7692C29.0281 19.7471 31.478 17.2973 34.5001 17.2973C37.5222 17.2973 39.9722 19.7472 39.9722 22.7692C39.9722 25.7913 37.5221 28.2412 34.5001 28.2412ZM56.1411 22.9301C55.5775 20.6177 54.7026 18.4735 53.4533 16.4456L55.3232 12.2355L50.3588 7.27128L46.1489 9.14102C44.171 7.92287 41.9881 7.0062 39.6642 6.45325L38.0102 2.15625H30.9898L29.3358 6.45312C27.0117 7.00593 24.8288 7.9226 22.8511 9.14088L18.641 7.27114L13.6767 12.2355L15.5466 16.4456C14.3285 18.4234 13.4115 20.6059 12.8589 22.9301L8.56192 24.5841V31.6047L12.8589 33.2587C13.4024 35.5451 14.3141 37.7425 15.5467 39.7433L13.6768 43.9534L18.6412 48.9178L22.8514 47.0479C26.2395 49.1347 30.2289 50.3394 34.5001 50.3394C38.7714 50.3394 42.761 49.1347 46.149 47.0478L50.3591 48.9178L55.3234 43.9533L53.4536 39.7432C54.6716 37.7654 55.5887 35.5828 56.1412 33.2587L60.4382 31.6047V24.5841L56.1411 22.9301ZM34.5 44.6705C25.3448 44.6705 17.9238 37.2498 17.9238 28.0945C17.9238 18.9392 25.3446 11.5181 34.5 11.5181C43.6554 11.5181 51.0762 18.9392 51.0762 28.0945C51.0762 37.2498 43.6552 44.6705 34.5 44.6705ZM24.393 50.3087C27.5555 51.75 30.9919 52.4955 34.5 52.4955C38.0079 52.4955 41.4445 51.7501 44.607 50.3087V53.0902C44.607 54.6031 43.3693 55.8408 41.8566 55.8408H27.1435C25.6308 55.8408 24.393 54.603 24.393 53.0902V50.3087ZM39.106 61.3422C40.6188 61.3422 41.8564 60.1048 41.8564 58.5916V57.9972H27.1435V58.5916C27.1435 60.1044 28.3812 61.3422 29.8942 61.3422H39.106Z" fill="#CACACA"/>
</svg>
