<svg width="73" height="73" viewBox="0 0 73 73" fill="none" xmlns="http://www.w3.org/2000/svg">
<path fill-rule="evenodd" clip-rule="evenodd" d="M62.8546 41.3771L69.7794 49.2608H65.7606V69.2267C65.7606 69.3639 65.7062 69.4954 65.6091 69.5924C65.5121 69.6893 65.3807 69.7439 65.2434 69.7439H60.4669C60.3298 69.7439 60.1982 69.6893 60.1012 69.5924C60.0043 69.4954 59.9498 69.3639 59.9498 69.2267V49.2608H55.9297L62.8546 41.3771ZM42.8625 3.57325C42.8625 3.02031 43.3113 2.57129 43.8644 2.57129C44.4174 2.57129 44.8664 3.02031 44.8664 3.57325V8.06318C44.8664 8.61626 44.4174 9.06514 43.8644 9.06514C43.3113 9.06514 42.8625 8.61626 42.8625 8.06318V3.57325ZM56.7389 8.32283C57.1301 7.93192 57.7651 7.93221 58.1558 8.32355C58.5467 8.71474 58.5464 9.3497 58.1552 9.74046L54.8587 13.0338C54.4675 13.4247 53.8325 13.4244 53.4417 13.033C53.0508 12.6419 53.0513 12.0069 53.4424 11.6161L56.7389 8.32283ZM29.5736 9.74018C29.1827 9.34912 29.1827 8.71417 29.5736 8.32312C29.9646 7.93207 30.5996 7.93207 30.9907 8.32312L34.284 11.6164C34.675 12.0075 34.675 12.6424 34.284 13.0335C33.8929 13.4245 33.258 13.4245 32.867 13.0335L29.5736 9.74018ZM32.5059 15.1346C27.9474 18.578 25.0019 24.0433 25.0019 30.1951C25.0019 34.6531 26.1606 37.1263 27.6402 39.5199C29.493 42.5169 31.9732 45.3554 32.6831 53.4174C32.6877 53.4702 32.6944 53.5224 32.703 53.574C31.8694 54.0327 31.304 54.9197 31.304 55.9377V61.4328C31.304 62.9207 32.5121 64.1288 34.0001 64.1288L34.4547 64.3948C34.4547 66.3896 36.0742 68.0091 38.0688 68.0091H38.4199V70.4292H18.0888C18.0888 70.4292 18.1073 66.7392 18.0887 63.9202C18.0707 61.2003 16.0374 60.8448 14.8964 60.7198C12.1091 60.4145 9.37951 61.54 8.27291 60.5779C7.61634 60.0071 8.46386 57.9441 7.39548 56.7772C6.71 56.0283 7.72412 55.5958 8.21466 55.227C8.82972 54.7644 10.288 54.24 10.288 54.24L8.0834 53.4633C7.29958 53.0846 6.38522 52.1828 6.93286 51.3882C7.8966 49.9895 7.47063 47.4765 7.47063 47.4765C7.47063 47.4765 5.43064 47.4485 4.67888 47.0004C3.55325 46.3292 3.06858 45.3227 3.26211 44.3353C3.62009 42.5104 7.1281 36.6473 8.16141 34.0351C8.48361 33.2293 8.67026 32.3756 8.71349 31.5088C9.26213 20.9334 16.1304 12.9774 27.3468 12.3765C28.0231 12.3403 28.6823 12.3234 29.3247 12.3251L31.45 14.4504C31.7599 14.7603 32.1209 14.9884 32.5059 15.1346ZM34.6793 53.2416C33.422 38.9645 27.0059 40.0806 27.0059 30.1951C27.0059 20.8864 34.5518 13.3365 43.8644 13.3365C53.1729 13.3365 60.723 20.8864 60.723 30.1951C60.723 40.0806 54.3067 38.9645 53.0495 53.2416H34.6793ZM54.2958 31.8804C54.7021 31.8804 55.0291 31.552 55.0291 31.1472V28.9147C55.0291 28.5098 54.7021 28.1814 54.2958 28.1814C52.0977 28.1814 50.9939 25.5178 52.5486 23.963C52.8348 23.6769 52.8348 23.2127 52.5486 22.9264L50.9702 21.3467C50.684 21.0605 50.2186 21.0605 49.9323 21.3467C48.3775 22.9014 45.7139 21.7991 45.7139 19.5995C45.7139 19.1945 45.3855 18.8662 44.9806 18.8662H42.7481C42.3433 18.8662 42.0149 19.1945 42.0149 19.5995C42.0149 21.7991 39.3512 22.9014 37.7964 21.3467C37.5103 21.0605 37.0461 21.0605 36.7599 21.3467L35.1801 22.9264C34.894 23.2127 34.894 23.6769 35.1801 23.963C36.7349 25.5178 35.6325 28.1814 33.4329 28.1814C33.0281 28.1814 32.6997 28.5098 32.6997 28.9147V31.1472C32.6997 31.552 33.0281 31.8804 33.4329 31.8804C35.6325 31.8804 36.7349 34.5441 35.1801 36.0989C34.894 36.385 34.894 36.8505 35.1801 37.1367L36.7599 38.7152C37.0461 39.0013 37.5103 39.0013 37.7964 38.7152C39.3525 37.1591 42.0149 38.2616 42.0149 40.4624C42.0149 40.8687 42.3433 41.1956 42.7481 41.1956H44.9806C45.3855 41.1956 45.7139 40.8687 45.7139 40.4624C45.7139 38.2641 48.3775 37.1604 49.9323 38.7152C50.2186 39.0013 50.684 39.0013 50.9702 38.7152L52.5486 37.1367C52.8348 36.8505 52.8348 36.385 52.5486 36.0989C50.9939 34.5441 52.0977 31.8804 54.2958 31.8804ZM44.0083 35.8029C40.8541 35.8029 38.2828 33.2301 38.2828 30.0774C38.2828 26.9234 40.8541 24.3519 44.0083 24.3519C47.1609 24.3519 49.7338 26.9234 49.7338 30.0774C49.7338 33.2301 47.1609 35.8029 44.0083 35.8029ZM36.4586 63.6993H51.2702V64.3948C51.2702 65.2836 50.5486 66.0051 49.6599 66.0051H38.0688C37.1802 66.0051 36.4586 65.2836 36.4586 64.3948V63.6993ZM52.0517 62.1248C52.045 62.1248 52.0381 62.1248 52.0314 62.1248H35.6974C35.6906 62.1248 35.6838 62.1248 35.6771 62.1248H34.0001C33.6181 62.1248 33.3079 61.8148 33.3079 61.4328V60.1646C33.3079 59.7827 33.6181 59.4725 34.0001 59.4725H53.7287C54.1108 59.4725 54.4208 59.7827 54.4208 60.1646V61.4328C54.4208 61.8148 54.1108 62.1248 53.7287 62.1248H52.0517ZM53.7287 57.898H34.0001C33.6181 57.898 33.3079 57.5878 33.3079 57.2058V55.9377C33.3079 55.5557 33.6181 55.2455 34.0001 55.2455H53.7287C54.1108 55.2455 54.4208 55.5557 54.4208 55.9377V57.2058C54.4208 57.5878 54.1108 57.898 53.7287 57.898Z" fill="#6A0DAD"/>
</svg>
